<?xml version="1.0" encoding="utf-8"?>
<!-- Generator: Adobe Illustrator 15.1.0, SVG Export Plug-In . SVG Version: 6.00 Build 0)  -->
<!DOCTYPE svg PUBLIC "-//W3C//DTD SVG 1.1//EN" "http://www.w3.org/Graphics/SVG/1.1/DTD/svg11.dtd">
<svg version="1.1" id="Layer_1" xmlns="http://www.w3.org/2000/svg" xmlns:xlink="http://www.w3.org/1999/xlink" x="0px" y="0px"
	 width="800px" height="600px" viewBox="0 0 800 600" enable-background="new 0 0 800 600" xml:space="preserve">
<g>
	
		<radialGradient id="SVGID_1_" cx="455.2197" cy="-9.1211" r="33.825" gradientTransform="matrix(-0.3511 -0.9363 0.9363 -0.3511 311.4321 656.4619)" gradientUnits="userSpaceOnUse">
		<stop  offset="0" style="stop-color:#56997C"/>
		<stop  offset="1" style="stop-color:#1A6344"/>
	</radialGradient>
	<path fill="url(#SVGID_1_)" d="M166.391,240.396l-58.362-7.372c-1.598-3.352-3.58-6.784-6.526-9.132
		c-2.421-1.939-6.638-3.623-9.473-1.387c-1.02,0.803-1.242,2.982-0.508,4.064c0.503,0.757,1.929,1.272,2.633,1.927
		c0.712,0.664,1.371,1.399,1.811,2.271c-2.721-2.022-6.406-3.795-9.837-2.417c-5.818,2.339-3.309,10.805,0.5,10.025
		c3.654-0.742,6.125,0.938,7.836,1.289c-1.167-0.24-3.761,1.156-4.873,1.674c-3.558,1.651-6.312,4.44-4.909,8.635
		c0.828,2.479,2.515,3.164,4.771,2.054c1.629-0.812,3.602-3.921,5.304-4.159l5.81-0.795c0,0,63.719,3.451,66.794,3.179
		C167.363,250.251,167.782,244.062,166.391,240.396z"/>
	<path fill="#1A6344" d="M259.652,349.662c-9.891-1.865-17.544,4.893-21.192,13.854c-1.068,2.627-1.833,5.471-2.376,8.258
		c-0.761,3.855-0.995,8.096-1.025,12.014l-10.439-8.791l-11.849-11.338c0.283-3.701,0.266-7.664-1.119-11.166
		c-1.139-2.887-3.954-6.443-7.528-5.92c-1.286,0.191-2.56,1.977-2.469,3.277c0.067,0.906,1.046,2.062,1.333,2.982
		c0.29,0.932,0.492,1.895,0.439,2.871c-1.353-3.107-3.674-6.479-7.33-6.988c-6.213-0.867-8.244,7.723-4.553,8.943
		c3.539,1.178,4.849,3.865,6.16,5.018c-0.896-0.787-3.843-0.867-5.062-0.973c-3.905-0.338-7.686,0.711-8.556,5.055
		c-0.516,2.557,0.609,3.994,3.118,4.148c1.823,0.113,5.08-1.613,6.67-0.967l5.439,2.197l15.933,10.027
		c9.625,6.246,16.13,10.039,18.93,11.332c0,0,6.933,2.877,6.843-2.703c0.602-4.18,2.342-8.109,5.212-11.787
		c5.978-8.109,16.305-11.586,30.603-10.453C276.851,368.553,275.306,352.615,259.652,349.662z"/>
	<path fill="#1A6344" d="M387.672,313.402c6.883,7.346,17.054,6.396,25.279,1.328c2.416-1.494,4.719-3.34,6.797-5.268
		c2.887-2.666,5.576-5.953,7.918-9.086l14.961,11.674l11.201,11.973c-0.484,3.682-0.688,7.639,0.504,11.215
		c0.975,2.941,3.594,6.65,7.191,6.316c1.293-0.111,2.662-1.82,2.639-3.127c-0.014-0.912-0.93-2.119-1.16-3.051
		c-0.238-0.945-0.389-1.918-0.281-2.893c1.182,3.182,3.307,6.672,6.932,7.385c6.156,1.205,8.66-7.258,5.039-8.684
		c-3.467-1.367-4.623-4.115-5.871-5.346c0.85,0.838,3.783,1.076,5,1.248c3.883,0.555,7.711-0.287,8.822-4.572
		c0.656-2.525-0.389-4.02-2.889-4.318c-1.807-0.209-5.154,1.33-6.711,0.6l-5.305-2.494l-15.357-10.889
		c-9.264-6.77-15.551-10.915-18.275-12.363c0,0-3.893-6.413-7.119-1.858c-2.951,3.02-6.676,5.17-11.16,6.449
		c-9.611,3.014-20.003-0.27-30.877-9.626C384.939,288.009,376.777,301.783,387.672,313.402z"/>
	<g>
		
			<ellipse transform="matrix(0.8442 -0.536 0.536 0.8442 -113.7182 131.6655)" fill="#FFFFFF" stroke="#050505" stroke-miterlimit="10" cx="169.63" cy="261.449" rx="9.397" ry="12.646"/>
		<path fill="#FFFFFF" stroke="#050505" stroke-miterlimit="10" d="M218.258,230.473c3.123,4.914,2.099,11.151-2.278,13.933
			c-4.384,2.78-10.465,1.06-13.588-3.854c-3.118-4.914-2.095-11.152,2.286-13.933C209.06,223.837,215.139,225.562,218.258,230.473z"
			/>
		
			<ellipse transform="matrix(0.8442 -0.5361 0.5361 0.8442 -75.465 160.0965)" fill="#FFFFFF" stroke="#050505" stroke-miterlimit="10" cx="237.652" cy="209.857" rx="9.397" ry="12.642"/>
		<path fill="#FFFFFF" stroke="#050505" stroke-miterlimit="10" d="M265.191,173.831c5.025,4.852,6.173,11.81,2.57,15.543
			c-3.604,3.735-10.6,2.831-15.622-2.02c-5.024-4.85-6.177-11.809-2.572-15.54C253.172,168.079,260.165,168.982,265.191,173.831z"/>
		<path fill="#FFFFFF" stroke="#050505" stroke-miterlimit="10" d="M226.871,290.575c3.742,5.893,3.226,12.929-1.156,15.71
			s-10.968,0.262-14.712-5.633s-3.226-12.929,1.153-15.712C216.539,282.153,223.125,284.681,226.871,290.575z"/>
		<path fill="#FFFFFF" stroke="#050505" stroke-miterlimit="10" d="M293.701,225.691c5.094,4.784,6.335,11.728,2.783,15.505
			c-3.557,3.787-10.563,2.978-15.652-1.806c-5.092-4.781-6.333-11.723-2.779-15.505C281.607,220.102,288.612,220.91,293.701,225.691
			z"/>
	</g>
	<radialGradient id="SVGID_2_" cx="263.4155" cy="161.2339" r="130.5938" gradientUnits="userSpaceOnUse">
		<stop  offset="0" style="stop-color:#56997C"/>
		<stop  offset="1" style="stop-color:#1A6344"/>
	</radialGradient>
	<path fill="url(#SVGID_2_)" d="M388.215,261.599c-35.515-93.866-140.724-193.334-234.868-93.364
		c-44.514,47.271-30.199,98.238-20.77,106.848c7.023,6.413,24.564-2.715,31.624-6.813c117.292-68.067,82.603-112.469,110.249-95.199
		c27.546,17.207,19.171,63.24-0.091,83.193c-21.357,22.13-50.937,40.646-77.888,52.651c-12.123,5.396-25.166,3.861-27.99,9.27
		c-11.507,22.02,68.622,3.117,87.911,37.803C284.039,405.709,426.107,361.744,388.215,261.599z"/>
	<g>
		<path d="M195.864,141.07c3.487-2.706,7.408-4.7,11.462-6.402c4.84-2.034,13.033-4.903,18.136-2.422
			c2.815,1.371,7.528,0.549,2.814-1.746c-12.517-6.095-28.638-0.762-39.076,7.334C187.724,138.978,194.207,142.354,195.864,141.07
			L195.864,141.07z"/>
	</g>
	<g>
		<path d="M193.134,138.118c-8.557-6.993-22.084-1.703-26.565,7.374c-0.417,0.844-0.82,2.898,0.829,2.412
			c1.667-0.492,2.97-2.271,3.695-3.747c1.21-2.449,6.688-2.735,8.936-2.766c3.018-0.042,6.002,0.797,8.349,2.714
			C190.098,145.509,194.883,139.545,193.134,138.118L193.134,138.118z"/>
	</g>
	<g>
		<path fill="#FFFFFF" d="M221.753,156.846c0.562,7.32-4.921,13.705-12.241,14.267c-7.318,0.559-13.706-4.92-14.264-12.24
			c-0.562-7.321,4.919-13.707,12.237-14.267C214.805,144.047,221.194,149.522,221.753,156.846z"/>
		<path fill="#FFFFFF" d="M193.07,157.046c0.385,5.029-3.38,9.418-8.406,9.804c-5.035,0.384-9.421-3.381-9.806-8.409
			c-0.384-5.03,3.377-9.42,8.41-9.806C188.299,148.25,192.685,152.017,193.07,157.046z"/>
	</g>
	<path fill="#0C0101" d="M210.792,161.567c0.098,1.265-0.851,2.372-2.115,2.47c-1.267,0.093-2.372-0.855-2.468-2.119
		c-0.097-1.267,0.851-2.37,2.115-2.468C209.591,159.354,210.696,160.302,210.792,161.567z"/>
	<path fill="#0C0101" d="M183.4,159.27c0.098,1.267-0.852,2.371-2.117,2.467c-1.266,0.096-2.37-0.848-2.463-2.118
		c-0.097-1.265,0.846-2.367,2.114-2.466C182.199,157.057,183.301,158.004,183.4,159.27z"/>
	
		<radialGradient id="SVGID_3_" cx="519.8438" cy="93.6084" r="41.7557" gradientTransform="matrix(0.8023 -0.5969 0.5969 0.8023 -127.6553 408.7715)" gradientUnits="userSpaceOnUse">
		<stop  offset="0" style="stop-color:#56997C"/>
		<stop  offset="1" style="stop-color:#1A6344"/>
	</radialGradient>
	<path fill="url(#SVGID_3_)" d="M341.904,194.31l-9.09-58.117c2.778-2.466,5.523-5.324,6.965-8.802
		c1.19-2.865,1.641-7.383-1.293-9.487c-1.057-0.755-3.21-0.367-4.048,0.636c-0.585,0.696-0.688,2.21-1.122,3.067
		c-0.441,0.868-0.964,1.702-1.682,2.367c1.191-3.176,1.872-7.207-0.403-10.122c-3.86-4.94-11.298-0.183-9.491,3.261
		c1.725,3.306,0.794,6.144,0.933,7.885c-0.094-1.187-2.154-3.293-2.958-4.217c-2.574-2.962-6.016-4.837-9.661-2.323
		c-2.148,1.482-2.341,3.292-0.646,5.153c1.229,1.342,4.765,2.373,5.462,3.943l2.379,5.362c0,0,14.342,62.179,15.455,65.061
		C332.703,197.978,338.763,196.661,341.904,194.31z"/>
</g>
</svg>
