<?xml version="1.0" encoding="utf-8"?>
<!-- Generator: Adobe Illustrator 16.1.0, SVG Export Plug-In . SVG Version: 6.00 Build 0)  -->
<!DOCTYPE svg PUBLIC "-//W3C//DTD SVG 1.1//EN" "http://www.w3.org/Graphics/SVG/1.1/DTD/svg11.dtd">
<svg version="1.1" id="Layer_1" xmlns="http://www.w3.org/2000/svg" xmlns:xlink="http://www.w3.org/1999/xlink" x="0px" y="0px"
	 width="576px" height="235px" viewBox="0 0 576 235" enable-background="new 0 0 576 235" xml:space="preserve">
<linearGradient id="SVGID_1_" gradientUnits="userSpaceOnUse" x1="287.9995" y1="12" x2="287.9995" y2="197">
	<stop  offset="0" style="stop-color:#5395C0"/>
	<stop  offset="0.2667" style="stop-color:#4681A8"/>
	<stop  offset="0.8277" style="stop-color:#234F6A"/>
	<stop  offset="1" style="stop-color:#183F56"/>
</linearGradient>
<path fill="url(#SVGID_1_)" d="M574.606,26.823c-2.45-0.861-5.236,3.621-7.389,4.19c-1.562,0.414-4.054,0.997-5.657,1.102
	c-1.661,0.109-2.766-1.017-4.324-0.955c-1.744,0.07-3.23,1.282-4.994,1.501c-1.789,0.224-3.428,0.101-5.152-0.098
	c-3.077-0.354-7.424,0.526-10.551-0.542c-2.043-0.697-1.856-1.422-3.847-0.348c-1.07,0.578-1.942,2.325-4.479-0.394
	c-0.517,0.084-1.247,0.963-1.604,0.953c-0.688-0.019-0.957-0.548-1.581-0.672c-1.134-0.226-2.954-0.566-3.966-0.1
	c-1.251-2.165-4.799-3.764-6.907-5.082c-2.273-1.421-5.869-3.87-8.35-1.73c-1.498-1.339-3.532-1.768-5.43-1.425
	c-2.25,0.406-2.756,1.947-4.584,2.744c-5.399,1.802-9.76-1.556-15.254-1.496c-3.309,0.036-6.029,1.561-9.108,2.533
	c-3.496,1.104-7.127,1.405-10.773,1.449c-4.56,0.056-13.664,0.054-17.622,3.5c-1.077-1.261-2.317-2.299-4.119-3.104
	c-5.579-2.494-11.385,1.731-17.206-0.036c-2.589-0.786-4.479-1.636-7.266-1.415c-2.615,0.208-4.85,0.146-7.455-0.164
	c-2.28-0.271-4.773-1.013-7.044-1.021c-2.808-0.008-5.063,1.66-7.849,0.891c-2.169-0.6-4.39-1.43-6.694-1.562
	c-1.923-0.109-4.986,1.493-5.944-1.003c-0.934-0.253-1.904-0.441-2.875-0.416c-2.445,0.064-4.596,1.542-7.024,1.667
	c-2.546,0.129-4.099-1.449-6.331-2.295c-2.408-0.913-4.941-0.287-7.399-0.83c-2.074-0.458-3.191-1.757-4.759-3.052
	c-3.968-3.278-8.14-4.951-13.142-5.766c-2.846-0.464-5.573-0.892-8.469-0.821c-2.804,0.069-5.521,0.315-8.13-0.934
	c-4.17-1.996-7.15-6.486-11.929-7.22c-4.702-0.723-10.116,0.604-14.921,0.533c-2.884-0.042-5.703-0.183-8.467,0.805
	c-2.434,0.869-4.46,2.319-7.096,2.578c-4.826,0.474-9.891-1.191-14.629,0.203c-4.956,1.458-9.572,3.658-14.656,4.861
	c-4.396,1.04-8.986,1.583-13.517,2.146c-1.178-0.213-2.368-0.393-3.576-0.518c-4.722-0.489-9.254-1.7-13.932-2.417
	c-4.938-0.758-9.735-0.217-14.656,0.365c-4.841,0.573-9.7,0.69-14.55,1.124c-5.357,0.479-10.625,1.608-15.963,2.231
	c-5.184,0.605-10.408,0.519-15.591,1.062c-3.594,0.376-6.986,1.524-10.524,2.173c-3.914,0.718-7.895,0.653-11.844,1.021
	c-4.437,0.414-8.768,1.439-13.131,2.297c-3.977,0.783-8.083,1.257-11.947,2.518c-4.164,1.358-8.037,3.586-12.033,5.355
	c-5.394,2.388-10.907,4.525-16.425,6.607c-3.696,1.395-7.604,3.011-11.636,2.65c-3.496-0.313-6.592-2.046-9.84-3.213
	c-3.507-1.26-6.962-1.534-10.645-0.97c-8.525,1.305-16.307,5.514-24.916,6.451c-7.05,0.767-13.769,0.448-20.645,1.763H0V235h576
	V24.5L574.606,26.823z"/>
<g>
</g>
<g>
</g>
<g>
</g>
<g>
</g>
<g>
</g>
<g>
</g>
<g>
</g>
<g>
</g>
<g>
</g>
<g>
</g>
<g>
</g>
<g>
</g>
<g>
</g>
<g>
</g>
<g>
</g>
</svg>
