<?xml version="1.0" encoding="utf-8"?>
<!-- Generator: Adobe Illustrator 16.2.1, SVG Export Plug-In . SVG Version: 6.00 Build 0)  -->
<!DOCTYPE svg PUBLIC "-//W3C//DTD SVG 1.1//EN" "http://www.w3.org/Graphics/SVG/1.1/DTD/svg11.dtd">
<svg version="1.1" id="Layer_4_copy" xmlns="http://www.w3.org/2000/svg" xmlns:xlink="http://www.w3.org/1999/xlink" x="0px"
	 y="0px" width="1258.561px" height="898.561px" viewBox="0 0 1258.561 898.561" enable-background="new 0 0 1258.561 898.561"
	 xml:space="preserve">
<path fill="#CA8004" d="M1020.725,79.118c0,0-8.908,0.688-8.729,3.597c0.183,2.979,9.453,8.184,9.453,8.184
	s-0.508,0.708-0.361,1.017c0.155,0.327,0.964,0.264,0.839,0.596c-0.251,0.656-0.201,1.323-0.49,2.113
	c-0.526,1.428-1.133,2.932,0.677,3.187c1.442,0.203,2.768-1.679,0.714-2.598c-0.268-0.12,0.279-0.825,0.086-1.099
	c-0.219-0.311,1.221-0.117,1.184-0.457c-0.031-0.281-0.549-0.466-0.561-0.689c-0.026-0.53,0.382-0.792,0.568-0.718
	c4.398,1.746,12.635,4.718,12.635,4.718s-0.97,3.091,0.096,3.473c1.355,0.486,3.238,1.601,5.848,1.707
	c0.487,0.019,0.697-0.325,1.221-0.355c0.654-0.038,2.135,0.019,3.448,0.256c0.984,0.178,1.846,0.549,2.356,0.549
	c1.287,0,0.282-0.856,1.132-0.573c2.627,0.877,4.382,1.232,4.382,1.232s-0.061,0.492-0.391,0.799
	c-0.354,0.331-0.979,0.491-0.938,0.806c0.044,0.323,2.247-0.522,2.412-0.181c0.076,0.156,0.265,0.781,0.058,0.9
	c-0.246,0.138-0.705-0.304-1.125-0.224c-0.5,0.094-0.954,0.73-1.051,1.221c-0.265,1.337,1.706,1.618,1.706,1.618
	s-1.804,1.27,0.277,2.382c1.805,0.965,3.558-1.854,0.98-2.295c-0.569-0.097,0.534-0.523,0.767-1.12
	c0.3-0.769-0.142-1.746-0.046-1.869c0.466-0.609,0.851-0.786,0.851-0.786l5.798,3.514c0,0,0.268,0.927-0.228,1.113
	c-0.411,0.153-1.135-0.569-1.704-0.462c-0.517,0.097-0.897,1.004-0.997,1.484c-0.297,1.432,2.32,0.816,2.32,0.816
	s0.094,0.508,0.445,0.897c0.332,0.368,0.909,0.609,1.423,0.911c0.574,0.338,1.306,0.249,1.827,0.311
	c0.246,0.029,1.016-0.465,1.246-0.42c0.597,0.119,1.18,0.402,1.602,0.303c1.385-0.326,0.242-2.425,0.242-2.425l-0.963-1.886
	c0,0,1.213-0.58,2.914-0.161c1.11,0.273,2.633,1.574,3.45,1.658c0.815,0.084,0.745-0.765,0.745-0.765s5.333,2.42,13.16,3.662
	c8.804,1.396,20.598,1.666,28.329,2.338c7.66,0.667,7.844-1.71,7.844-1.71s1.624,0.446,3.666,0.609
	c3.623,0.29,8.603,0.328,8.435-0.039c-0.066-0.145-12.247-1.886-12.397-2.043c-0.334-0.351-0.276-0.944-0.868-1.303
	c-0.538-0.326-1.74-0.416-1.88-0.731c-0.141-0.312,0.362-0.261,0.618-0.515c0.258-0.257,0.267-0.818,0.267-0.818
	s2.415-1.445,3.677-2.365c0.228-0.166-1.366-0.442-1.366-0.442l8.656-11.942c0,0-5.362-2.343-6.531-1.931
	c-3.381,1.192-9.264,4.175-14.812,7.128c-3.858,2.054-7.089,4.788-11.153,3.997c-3.148-0.612-12.474-2.894-19.977-5.608
	c-5.76-2.083-14.527-3.936-19.165-6.385c-8.329-4.4-32.862-12.762-39.185-13.571C1022.066,77.459,1020.725,79.118,1020.725,79.118z"
	/>
<path fill="#CA8004" d="M1020.725,79.118c0,0-8.908,0.688-8.729,3.597c0.183,2.979,9.453,8.184,9.453,8.184
	s-0.508,0.708-0.361,1.017c0.155,0.327,0.964,0.264,0.839,0.596c-0.251,0.656-0.201,1.323-0.49,2.113
	c-0.526,1.428-1.133,2.932,0.677,3.187c1.442,0.203,2.768-1.679,0.714-2.598c-0.268-0.12,0.279-0.825,0.086-1.099
	c-0.219-0.311,1.221-0.117,1.184-0.457c-0.031-0.281-0.549-0.466-0.561-0.689c-0.026-0.53,0.382-0.792,0.568-0.718
	c4.398,1.746,12.635,4.718,12.635,4.718s-0.97,3.091,0.096,3.473c1.355,0.486,3.238,1.601,5.848,1.707
	c0.487,0.019,0.697-0.325,1.221-0.355c0.654-0.038,2.135,0.019,3.448,0.256c0.984,0.178,1.846,0.549,2.356,0.549
	c1.287,0,0.282-0.856,1.132-0.573c2.627,0.877,4.382,1.232,4.382,1.232s-0.061,0.492-0.391,0.799
	c-0.354,0.331-0.979,0.491-0.938,0.806c0.044,0.323,2.247-0.522,2.412-0.181c0.076,0.156,0.265,0.781,0.058,0.9
	c-0.246,0.138-0.705-0.304-1.125-0.224c-0.5,0.094-0.954,0.73-1.051,1.221c-0.265,1.337,1.706,1.618,1.706,1.618
	s-1.804,1.27,0.277,2.382c1.805,0.965,3.558-1.854,0.98-2.295c-0.569-0.097,0.534-0.523,0.767-1.12
	c0.3-0.769-0.142-1.746-0.046-1.869c0.466-0.609,0.851-0.786,0.851-0.786l5.798,3.514c0,0,0.268,0.927-0.228,1.113
	c-0.411,0.153-1.135-0.569-1.704-0.462c-0.517,0.097-0.897,1.004-0.997,1.484c-0.297,1.432,2.32,0.816,2.32,0.816
	s0.094,0.508,0.445,0.897c0.332,0.368,0.909,0.609,1.423,0.911c0.574,0.338,1.306,0.249,1.827,0.311
	c0.246,0.029,1.016-0.465,1.246-0.42c0.597,0.119,1.18,0.402,1.602,0.303c1.385-0.326,0.242-2.425,0.242-2.425l-0.963-1.886
	c0,0,1.213-0.58,2.914-0.161c1.11,0.273,2.633,1.574,3.45,1.658c0.815,0.084,0.745-0.765,0.745-0.765s5.333,2.42,13.16,3.662
	c8.804,1.396,20.598,1.666,28.329,2.338c7.66,0.667,7.844-1.71,7.844-1.71s1.624,0.446,3.666,0.609
	c3.623,0.29,8.603,0.328,8.435-0.039c-0.066-0.145-12.247-1.886-12.397-2.043c-0.334-0.351-0.276-0.944-0.868-1.303
	c-0.538-0.326-1.74-0.416-1.88-0.731c-0.141-0.312,0.362-0.261,0.618-0.515c0.258-0.257,0.267-0.818,0.267-0.818
	s2.415-1.445,3.677-2.365c0.228-0.166-1.366-0.442-1.366-0.442l8.656-11.942c0,0-5.362-2.343-6.531-1.931
	c-3.381,1.192-9.264,4.175-14.812,7.128c-3.858,2.054-7.089,4.788-11.153,3.997c-3.148-0.612-12.474-2.894-19.977-5.608
	c-5.76-2.083-14.527-3.936-19.165-6.385c-8.329-4.4-32.862-12.762-39.185-13.571C1022.066,77.459,1020.725,79.118,1020.725,79.118z"
	/>
</svg>
