<?xml version="1.0" encoding="utf-8"?>
<!-- Generator: Adobe Illustrator 16.2.0, SVG Export Plug-In . SVG Version: 6.00 Build 0)  -->
<!DOCTYPE svg PUBLIC "-//W3C//DTD SVG 1.1//EN" "http://www.w3.org/Graphics/SVG/1.1/DTD/svg11.dtd">
<svg version="1.1" id="Layer_1" xmlns="http://www.w3.org/2000/svg" xmlns:xlink="http://www.w3.org/1999/xlink" x="0px" y="0px"
	 width="818.944px" height="270.314px" viewBox="0 0 818.944 270.314" enable-background="new 0 0 818.944 270.314"
	 xml:space="preserve">
<linearGradient id="SVGID_1_" gradientUnits="userSpaceOnUse" x1="689.8892" y1="151.8027" x2="689.8892" y2="532.3661">
	<stop  offset="0" style="stop-color:#FFCA05"/>
	<stop  offset="0.3336" style="stop-color:#F68D18"/>
	<stop  offset="0.5273" style="stop-color:#F26F21"/>
	<stop  offset="1" style="stop-color:#613438"/>
</linearGradient>
<path fill="url(#SVGID_1_)" d="M705.569,152.494v21.166h-4c0,0,0,6.834,0,7.166h13.14v-28.664L705.569,152.494z M668.235,188.326
	v-3.166h-3.166v14.438l5.624,1.562h6.646v-10.666h-5.937L668.235,188.326z"/>
<linearGradient id="SVGID_2_" gradientUnits="userSpaceOnUse" x1="715.3188" y1="199.0947" x2="715.3188" y2="270.2365">
	<stop  offset="0" style="stop-color:#F37B20"/>
	<stop  offset="0.3276" style="stop-color:#DD4127"/>
	<stop  offset="0.5273" style="stop-color:#D1232A"/>
	<stop  offset="1" style="stop-color:#613438"/>
</linearGradient>
<polygon fill="url(#SVGID_2_)" points="743.402,199.494 693.068,199.494 693.068,201.994 687.235,202.66 687.235,255.449 
	743.402,255.449 "/>
<linearGradient id="SVGID_3_" gradientUnits="userSpaceOnUse" x1="684.6313" y1="196.6777" x2="684.6313" y2="270.6132">
	<stop  offset="0" style="stop-color:#EC1C24"/>
	<stop  offset="0.3211" style="stop-color:#B5282E"/>
	<stop  offset="0.5273" style="stop-color:#972E33"/>
	<stop  offset="1" style="stop-color:#613438"/>
</linearGradient>
<polygon fill="url(#SVGID_3_)" points="692.818,197.16 690.818,198.66 684.193,198.66 684.193,201.16 670.693,201.16 
	665.069,199.598 665.069,248.66 687.235,248.66 687.235,202.66 693.068,201.994 693.068,199.494 704.193,199.494 704.193,197.16 "/>
<linearGradient id="SVGID_4_" gradientUnits="userSpaceOnUse" x1="710.3696" y1="152.376" x2="710.3696" y2="290.1385">
	<stop  offset="0" style="stop-color:#FCB813"/>
	<stop  offset="0.2905" style="stop-color:#F68D1B"/>
	<stop  offset="0.5273" style="stop-color:#F26F21"/>
	<stop  offset="1" style="stop-color:#613438"/>
</linearGradient>
<path fill="url(#SVGID_4_)" d="M733.069,181.66v-2.666h-2.5V153.16l-15.834-1l-0.026,0.002v28.664h-13.14c0,0.334-8.667,0-8.667,0
	v-6.5h-3.5v-1.832h1.667v-0.834h-9v0.834h1.5v2h-6.167v16h-0.063v10.666h6.854v-2.5h6.625l2-1.5h11.375v2.334h39.209V181.66H733.069
	z"/>
<linearGradient id="SVGID_5_" gradientUnits="userSpaceOnUse" x1="553.3442" y1="212.8398" x2="553.3442" y2="270.732">
	<stop  offset="0" style="stop-color:#EC1C24"/>
	<stop  offset="0.1229" style="stop-color:#D62129"/>
	<stop  offset="0.3152" style="stop-color:#B8292F"/>
	<stop  offset="0.4075" style="stop-color:#AA2B31"/>
	<stop  offset="0.5483" style="stop-color:#9A2E33"/>
	<stop  offset="0.6606" style="stop-color:#952F34"/>
	<stop  offset="1" style="stop-color:#363639"/>
</linearGradient>
<path fill="url(#SVGID_5_)" d="M551.663,216.713v47.23h51.066v-47.23H551.663z M504.019,270.273h35.282l-0.059-54.326H503.96
	L504.019,270.273z"/>
<linearGradient id="SVGID_6_" gradientUnits="userSpaceOnUse" x1="516.0044" y1="170.5586" x2="516.0044" y2="264.5568">
	<stop  offset="0" style="stop-color:#F05A22"/>
	<stop  offset="0.1262" style="stop-color:#DF4326"/>
	<stop  offset="0.3152" style="stop-color:#C8252C"/>
	<stop  offset="0.3343" style="stop-color:#C3262D"/>
	<stop  offset="0.4586" style="stop-color:#AA2B31"/>
	<stop  offset="0.571" style="stop-color:#9A2E33"/>
	<stop  offset="0.6606" style="stop-color:#952F34"/>
	<stop  offset="1" style="stop-color:#363639"/>
</linearGradient>
<polygon fill="url(#SVGID_6_)" points="527.898,173.791 527.898,172.402 507.049,172.402 503.96,173.482 503.96,215.947 
	528.048,215.947 528.048,173.785 "/>
<linearGradient id="SVGID_7_" gradientUnits="userSpaceOnUse" x1="560.5571" y1="204.5342" x2="560.5571" y2="270.5827">
	<stop  offset="0" style="stop-color:#F89E1C"/>
	<stop  offset="0.2746" style="stop-color:#F4781F"/>
	<stop  offset="0.5273" style="stop-color:#F05A22"/>
	<stop  offset="1" style="stop-color:#613438"/>
</linearGradient>
<path fill="url(#SVGID_7_)" d="M539.243,215.947v47.996h12.42v-47.23h41.021c0.213-6.631,0.382-11.039,0.382-11.039h-53.209
	l-11.808,1.221v9.053H539.243z"/>
<linearGradient id="SVGID_8_" gradientUnits="userSpaceOnUse" x1="557.0063" y1="170.5586" x2="557.0063" y2="264.5445">
	<stop  offset="0" style="stop-color:#F05A22"/>
	<stop  offset="0.1262" style="stop-color:#DF4326"/>
	<stop  offset="0.3152" style="stop-color:#C8252C"/>
	<stop  offset="0.3343" style="stop-color:#C3262D"/>
	<stop  offset="0.4586" style="stop-color:#AA2B31"/>
	<stop  offset="0.571" style="stop-color:#9A2E33"/>
	<stop  offset="0.6606" style="stop-color:#952F34"/>
	<stop  offset="1" style="stop-color:#363639"/>
</linearGradient>
<polygon fill="url(#SVGID_8_)" points="585.965,174.254 573.611,174.254 573.611,171.783 549.055,171.012 539.944,171.938 
	539.944,173.328 528.048,173.785 528.048,178.531 582.025,178.531 "/>
<linearGradient id="SVGID_9_" gradientUnits="userSpaceOnUse" x1="565.3892" y1="173.3818" x2="565.3892" y2="270.3738">
	<stop  offset="0" style="stop-color:#F48120"/>
	<stop  offset="0.2099" style="stop-color:#EE3A23"/>
	<stop  offset="0.3152" style="stop-color:#EC1C24"/>
	<stop  offset="0.3273" style="stop-color:#E71D25"/>
	<stop  offset="0.4236" style="stop-color:#C4252B"/>
	<stop  offset="0.514" style="stop-color:#AA2A30"/>
	<stop  offset="0.5956" style="stop-color:#9A2E33"/>
	<stop  offset="0.6606" style="stop-color:#952F34"/>
	<stop  offset="1" style="stop-color:#363639"/>
</linearGradient>
<path fill="url(#SVGID_9_)" d="M589.232,203.527c0,0,0-15.488,0-19.168s-1.99-8.127-1.99-8.127l-1.276-1.979l-3.94,4.277h-53.977
	v28.363l11.808-1.221h53.209c0,0-0.169,4.408-0.382,11.039h10.046v-13.186H589.232z"/>
<linearGradient id="SVGID_10_" gradientUnits="userSpaceOnUse" x1="594.9849" y1="170.5596" x2="594.9849" y2="264.5436">
	<stop  offset="0" style="stop-color:#F6921E"/>
	<stop  offset="0.0035" style="stop-color:#F5911E"/>
	<stop  offset="0.217" style="stop-color:#D54328"/>
	<stop  offset="0.3152" style="stop-color:#C8252C"/>
	<stop  offset="0.3343" style="stop-color:#C3262D"/>
	<stop  offset="0.4586" style="stop-color:#AA2B31"/>
	<stop  offset="0.571" style="stop-color:#9A2E33"/>
	<stop  offset="0.6606" style="stop-color:#952F34"/>
	<stop  offset="1" style="stop-color:#363639"/>
</linearGradient>
<path fill="url(#SVGID_10_)" d="M602.729,176.232h-15.487c0,0,1.475,3.301,1.884,6.568h13.604V176.232z"/>
<linearGradient id="SVGID_11_" gradientUnits="userSpaceOnUse" x1="595.9272" y1="170.5566" x2="595.9272" y2="264.5591">
	<stop  offset="0" style="stop-color:#F05A22"/>
	<stop  offset="0.1262" style="stop-color:#DF4326"/>
	<stop  offset="0.3152" style="stop-color:#C8252C"/>
	<stop  offset="0.3343" style="stop-color:#C3262D"/>
	<stop  offset="0.4586" style="stop-color:#AA2B31"/>
	<stop  offset="0.571" style="stop-color:#9A2E33"/>
	<stop  offset="0.6606" style="stop-color:#952F34"/>
	<stop  offset="1" style="stop-color:#363639"/>
</linearGradient>
<path fill="url(#SVGID_11_)" d="M589.232,203.527h13.497v-20.727h-13.604c0.065,0.525,0.106,1.049,0.106,1.559
	C589.232,188.039,589.232,203.527,589.232,203.527z"/>
<linearGradient id="SVGID_12_" gradientUnits="userSpaceOnUse" x1="529.4058" y1="230.9082" x2="529.4058" y2="289.2558">
	<stop  offset="0" style="stop-color:#EE4023"/>
	<stop  offset="0.2316" style="stop-color:#D33529"/>
	<stop  offset="0.5273" style="stop-color:#B5292F"/>
	<stop  offset="1" style="stop-color:#363639"/>
</linearGradient>
<path fill="url(#SVGID_12_)" d="M529.406,241.666c0.002,0.002,0.003-0.018,0.005-0.02
	C529.4,241.652,529.398,241.658,529.406,241.666z"/>
<linearGradient id="SVGID_13_" gradientUnits="userSpaceOnUse" x1="534.0063" y1="230.6357" x2="534.0063" y2="290.4587">
	<stop  offset="0" style="stop-color:#EE4023"/>
	<stop  offset="0.2316" style="stop-color:#D33529"/>
	<stop  offset="0.5273" style="stop-color:#B5292F"/>
	<stop  offset="1" style="stop-color:#363639"/>
</linearGradient>
<path fill="url(#SVGID_13_)" d="M538.602,232.064l-9.185,1.418c0.026,2.287,0.084,8.037-0.007,8.164
	c0.156-0.086,2.192,0.02,2.192,0.02l6.999-0.812V232.064z"/>
<linearGradient id="SVGID_14_" gradientUnits="userSpaceOnUse" x1="535.4692" y1="230.5938" x2="535.4692" y2="270.2191">
	<stop  offset="0" style="stop-color:#A52C32"/>
	<stop  offset="0.0396" style="stop-color:#A22C32"/>
	<stop  offset="0.5273" style="stop-color:#843135"/>
	<stop  offset="1" style="stop-color:#363639"/>
</linearGradient>
<path fill="url(#SVGID_14_)" d="M534.452,243.621l7.08-1.303v-11.557h-2.116l-10.01,1.791c0,0,0.005,0.363,0.012,0.93l9.185-1.418
	v8.789l-6.999,0.812v1.955H534.452z"/>
<linearGradient id="SVGID_15_" gradientUnits="userSpaceOnUse" x1="551.3384" y1="230.4268" x2="551.3384" y2="270.4295">
	<stop  offset="0" style="stop-color:#EE4023"/>
	<stop  offset="0.2316" style="stop-color:#D33529"/>
	<stop  offset="0.5273" style="stop-color:#B5292F"/>
	<stop  offset="1" style="stop-color:#363639"/>
</linearGradient>
<polygon fill="url(#SVGID_15_)" points="572.783,251.189 572.783,245.086 562.854,245.086 562.854,230.762 541.532,230.762 
	541.532,242.318 534.452,243.621 531.603,243.621 531.603,256.479 529.894,256.479 529.894,257.619 540.067,257.619 
	540.067,263.885 537.218,263.885 537.218,266.57 529.894,266.57 529.894,270.232 543.81,270.232 543.81,251.189 "/>
<linearGradient id="SVGID_16_" gradientUnits="userSpaceOnUse" x1="567.8188" y1="230.7305" x2="567.8188" y2="270.3252">
	<stop  offset="0" style="stop-color:#A52C32"/>
	<stop  offset="0.0396" style="stop-color:#A22C32"/>
	<stop  offset="0.5273" style="stop-color:#843135"/>
	<stop  offset="1" style="stop-color:#363639"/>
</linearGradient>
<rect x="562.854" y="230.762" fill="url(#SVGID_16_)" width="9.929" height="14.324"/>
<linearGradient id="SVGID_17_" gradientUnits="userSpaceOnUse" x1="534.981" y1="230.6396" x2="534.981" y2="290.4623">
	<stop  offset="0" style="stop-color:#EE4023"/>
	<stop  offset="0.2316" style="stop-color:#D33529"/>
	<stop  offset="0.5273" style="stop-color:#B5292F"/>
	<stop  offset="1" style="stop-color:#363639"/>
</linearGradient>
<polygon fill="url(#SVGID_17_)" points="537.218,263.885 540.067,263.885 540.067,257.619 529.894,257.619 529.894,266.57 
	537.218,266.57 "/>
<linearGradient id="SVGID_18_" gradientUnits="userSpaceOnUse" x1="558.2964" y1="230.6348" x2="558.2964" y2="290.4668">
	<stop  offset="0" style="stop-color:#EE4023"/>
	<stop  offset="0.2316" style="stop-color:#D33529"/>
	<stop  offset="0.5273" style="stop-color:#B5292F"/>
	<stop  offset="1" style="stop-color:#363639"/>
</linearGradient>
<rect x="543.81" y="251.189" fill="url(#SVGID_18_)" width="28.973" height="19.043"/>
<linearGradient id="SVGID_19_" gradientUnits="userSpaceOnUse" x1="557.4595" y1="243.1709" x2="557.4595" y2="293.2854">
	<stop  offset="0" style="stop-color:#F16722"/>
	<stop  offset="0.2615" style="stop-color:#CF4A29"/>
	<stop  offset="0.5091" style="stop-color:#AB2B31"/>
	<stop  offset="1" style="stop-color:#252125"/>
</linearGradient>
<rect x="544.152" y="244.355" fill="url(#SVGID_19_)" width="26.616" height="25.898"/>
<linearGradient id="SVGID_20_" gradientUnits="userSpaceOnUse" x1="535.231" y1="243.1709" x2="535.231" y2="293.2854">
	<stop  offset="0" style="stop-color:#F68C1E"/>
	<stop  offset="0.1841" style="stop-color:#E76A23"/>
	<stop  offset="0.5091" style="stop-color:#C8252C"/>
	<stop  offset="1" style="stop-color:#252125"/>
</linearGradient>
<polygon fill="url(#SVGID_20_)" points="539.979,245.219 539.979,266.082 529.333,266.082 526.311,266.514 526.311,270.254 
	544.152,270.254 544.152,244.355 "/>
<linearGradient id="SVGID_21_" gradientUnits="userSpaceOnUse" x1="740.3892" y1="118.5269" x2="740.3892" y2="270.2569">
	<stop  offset="0" style="stop-color:#FCB813"/>
	<stop  offset="0.1331" style="stop-color:#F89617"/>
	<stop  offset="0.4259" style="stop-color:#F03F20"/>
	<stop  offset="0.5394" style="stop-color:#EC1C24"/>
	<stop  offset="1" style="stop-color:#7D3236"/>
</linearGradient>
<polygon fill="url(#SVGID_21_)" points="737.062,120.126 737.062,248.354 743.715,248.354 743.715,119.119 "/>
<linearGradient id="SVGID_22_" gradientUnits="userSpaceOnUse" x1="778.3892" y1="118.9565" x2="778.3892" y2="270.3154">
	<stop  offset="0" style="stop-color:#F6921E"/>
	<stop  offset="0.1851" style="stop-color:#E87022"/>
	<stop  offset="0.5394" style="stop-color:#C8252C"/>
	<stop  offset="1" style="stop-color:#613438"/>
</linearGradient>
<path fill="url(#SVGID_22_)" d="M776.545,248.354h16.659V128.975h-16.659V248.354z M805.943,128.975v119.378h7.12V128.975H805.943z
	 M752.208,121.952h-6.043v-2.995h-1.382l-1.068,0.162v129.235h9.8V121.135h-1.307V121.952z"/>
<linearGradient id="SVGID_23_" gradientUnits="userSpaceOnUse" x1="748.6421" y1="120.2524" x2="748.6421" y2="329.4995">
	<stop  offset="0" style="stop-color:#DA2128"/>
	<stop  offset="0.2173" style="stop-color:#B8272D"/>
	<stop  offset="0.5091" style="stop-color:#843135"/>
	<stop  offset="1" style="stop-color:#252125"/>
</linearGradient>
<path fill="url(#SVGID_23_)" d="M746.154,131.718v-6.521h-0.688v7.123h6.352v-0.602H746.154z M746.154,135.41h-0.688v7.124h6.352
	v-0.602h-5.664V135.41z M746.154,145.451h-0.688v6.693h6.352v-0.564h-5.664V145.451z M746.154,155.922h-0.688v6.436h6.352v-0.543
	h-5.664V155.922z M746.154,165.533h-0.688v7.037h6.352v-0.594h-5.664V165.533z M746.154,175.662h-0.688v7.207h6.352v-0.607h-5.664
	V175.662z M746.154,186.045h-0.688v7.037h6.352v-0.594h-5.664V186.045z M746.154,196.088h-0.688v7.037h6.352v-0.594h-5.664V196.088z
	 M746.154,205.871h-0.688v7.037h6.352v-0.594h-5.664V205.871z M746.154,215.912h-0.688v7.037h6.352v-0.594h-5.664V215.912z
	 M746.154,226.297h-0.688v7.035h6.352v-0.592h-5.664V226.297z"/>
<linearGradient id="SVGID_24_" gradientUnits="userSpaceOnUse" x1="783.5337" y1="99.0679" x2="783.5337" y2="269.5422">
	<stop  offset="0" style="stop-color:#DA2128"/>
	<stop  offset="0.3935" style="stop-color:#B8292F"/>
	<stop  offset="0.5091" style="stop-color:#AD2B31"/>
	<stop  offset="1" style="stop-color:#4C3539"/>
</linearGradient>
<path fill="url(#SVGID_24_)" d="M804.451,99.068l-0.076,0.022v12.695h-10.451v17.584h-0.719v118.984h12.738V132.285h-0.172v-17.639
	l2.763,2.763v11.566h4.529V99.068H804.451z M791.582,99.068h-28.984v15.647h-5.646v0.03h-2.946v133.608h22.54V128.975h12.005
	v-16.959l3.094-1.5v-9.811l0.004-0.002l-0.066,0.002V99.068z"/>
<linearGradient id="SVGID_25_" gradientUnits="userSpaceOnUse" x1="776.6587" y1="-1175.3711" x2="776.6586" y2="1230.0764">
	<stop  offset="0" style="stop-color:#CE242A"/>
	<stop  offset="0.4094" style="stop-color:#AC292F"/>
	<stop  offset="1" style="stop-color:#743237"/>
</linearGradient>
<path fill="url(#SVGID_25_)" d="M744.784,116.382v2.574h1.382v2.995h6.043v-0.816h1.307v127.218h0.49V114.746h-0.33L744.784,116.382
	z M756.952,100.706v14.01h5.646V99.068h-0.03L756.952,100.706z M791.648,100.704l-0.004,0.002v9.811l-3.094,1.5v16.959h4.654v0.395
	h0.719v-17.584h10.451V99.09l-4.604,1.381L791.648,100.704z M805.771,114.646v17.639h0.172v-3.31h2.591v-11.566L805.771,114.646z"/>
<linearGradient id="SVGID_26_" gradientUnits="userSpaceOnUse" x1="773.3267" y1="228.6689" x2="773.3267" y2="339.1814">
	<stop  offset="0" style="stop-color:#F27321"/>
	<stop  offset="0.3166" style="stop-color:#BD472C"/>
	<stop  offset="0.5273" style="stop-color:#9F2D32"/>
	<stop  offset="1" style="stop-color:#4C3539"/>
</linearGradient>
<polygon fill="url(#SVGID_26_)" points="770.475,260.789 767.298,260.789 767.298,259.494 764.122,259.494 764.122,260.436 
	762.828,260.436 762.828,259.023 748.473,259.023 748.473,270.256 798.18,270.256 798.18,259.613 770.475,259.613 "/>
<linearGradient id="SVGID_27_" gradientUnits="userSpaceOnUse" x1="772.354" y1="209.4775" x2="772.354" y2="250.452">
	<stop  offset="0" style="stop-color:#F89E1C"/>
	<stop  offset="0.6213" style="stop-color:#F16421"/>
	<stop  offset="1" style="stop-color:#EE4623"/>
</linearGradient>
<rect x="768.822" y="235.83" fill="url(#SVGID_27_)" width="7.064" height="4.232"/>
<linearGradient id="SVGID_28_" gradientUnits="userSpaceOnUse" x1="745.2612" y1="230.3535" x2="745.2612" y2="270.534">
	<stop  offset="0" style="stop-color:#F89E1C"/>
	<stop  offset="0.6213" style="stop-color:#F16421"/>
	<stop  offset="1" style="stop-color:#EE4623"/>
</linearGradient>
<path fill="url(#SVGID_28_)" d="M689.527,270.256h0.823v-8.996l2.824-1.529v-16.002l5.268-0.285v-11.395h-8.915V270.256z
	 M705.763,243.064v27.191h18.708V259.26h7.647v-5.092h0.373v-10.455l-26.275-0.672L705.763,243.064z M778.339,231.244l-11.931,0.805
	v3.754h2.413v0.027h7.064v4.232h-7.064v0.029l-23.588-0.133v18.975h-7.75v-4.766h-1.13v16.088h12.119v-11.232h14.354v1.412h1.294
	v-0.941h3.177v1.295h3.177v-1.176h27.705v-23.811h2.815v-4.156L778.339,231.244z"/>
<linearGradient id="SVGID_29_" gradientUnits="userSpaceOnUse" x1="711.6489" y1="231.4141" x2="711.6489" y2="270.4521">
	<stop  offset="0" style="stop-color:#FFC10E"/>
	<stop  offset="0.5007" style="stop-color:#F99E18"/>
	<stop  offset="1" style="stop-color:#F48020"/>
</linearGradient>
<path fill="url(#SVGID_29_)" d="M682.489,242.104h-4.424v28.152h11.462v-38.207h-7.038V242.104z M693.174,243.729v16.002
	l-2.824,1.529v8.996h15.413v-27.191l-7.321,0.379L693.174,243.729z M745.227,239.959l-9.25,1.072v13.137h1.507v4.766h7.75v-18.975
	H745.227z"/>
<linearGradient id="SVGID_30_" gradientUnits="userSpaceOnUse" x1="730.4126" y1="230.2383" x2="730.4126" y2="313.6885">
	<stop  offset="0" style="stop-color:#F27321"/>
	<stop  offset="0.2934" style="stop-color:#D04729"/>
	<stop  offset="0.5273" style="stop-color:#B8292F"/>
	<stop  offset="1" style="stop-color:#4C3539"/>
</linearGradient>
<path fill="url(#SVGID_30_)" d="M724.471,270.256h5.227V259.26h-5.227V270.256z M732.119,254.168v5.092h-0.827v10.996h5.062v-16.088
	H732.119z"/>
<linearGradient id="SVGID_31_" gradientUnits="userSpaceOnUse" x1="730.4946" y1="230.3545" x2="730.4946" y2="270.534">
	<stop  offset="0" style="stop-color:#F89E1C"/>
	<stop  offset="0.5273" style="stop-color:#F4821F"/>
	<stop  offset="1" style="stop-color:#EC1C24"/>
</linearGradient>
<rect x="729.698" y="259.26" fill="url(#SVGID_31_)" width="1.594" height="10.996"/>
<linearGradient id="SVGID_32_" gradientUnits="userSpaceOnUse" x1="634.3735" y1="153.3066" x2="634.3735" y2="303.2376">
	<stop  offset="0" style="stop-color:#F89E1C"/>
	<stop  offset="0.0835" style="stop-color:#F6881D"/>
	<stop  offset="0.3873" style="stop-color:#EF3A22"/>
	<stop  offset="0.5273" style="stop-color:#EC1C24"/>
	<stop  offset="1" style="stop-color:#4C3539"/>
</linearGradient>
<path fill="url(#SVGID_32_)" d="M681.417,203.781v-0.688h-18.629v67.156h18.629v-6.969h-1.963v-7.875h1.963v-9.25h-1.963v-7.875
	h1.963v-9.75h-1.963v-7.875h1.963v-10.75h-1.963v-6.125H681.417z M616.122,270.25h36.666v-67.156h-36.666V270.25z M587.33,270.25
	h18.459v-67.156H587.33V270.25z"/>
<linearGradient id="SVGID_33_" gradientUnits="userSpaceOnUse" x1="150.0449" y1="19.3892" x2="150.0449" y2="270.084">
	<stop  offset="0" style="stop-color:#F89E1C"/>
	<stop  offset="0.3166" style="stop-color:#F26920"/>
	<stop  offset="0.5273" style="stop-color:#EF4B23"/>
	<stop  offset="1" style="stop-color:#4C3539"/>
</linearGradient>
<path fill="url(#SVGID_33_)" d="M156.437,209.449v-19.334c-21.291-0.244-39.819,0.258-50.316,0.646v24.164h87.848v-5.477H156.437z
	 M156.437,57.956v-5.081c-21.291-0.297-39.819,0.312-50.316,0.785v5.171C125.592,57.779,142.77,57.686,156.437,57.956z
	 M156.437,79.399V74.16c-21.291-0.275-39.819,0.291-50.316,0.729v5.354C125.592,79.229,142.77,79.139,156.437,79.399z
	 M156.437,89.745v-4.987c-21.291-0.275-39.819,0.291-50.316,0.73v5.101C125.592,89.575,142.77,89.485,156.437,89.745z
	 M156.437,36.765V23.834l-0.921-0.042v-0.555c-2.325-0.048-4.607-0.089-6.819-0.118v2.689h-2.224v-2.717
	c-5.509-0.06-10.629-0.066-15.328-0.036v2.832h-2.224v-2.814c-1.196,0.011-2.358,0.024-3.495,0.041v2.773h-2.224v-2.741
	c-1.254,0.021-2.48,0.043-3.653,0.068v3.075h-2.224v-3.024c-2.654,0.065-5.059,0.138-7.227,0.214v3.131h-2.224v-3.049
	c-0.615,0.024-1.193,0.048-1.756,0.071v14.04C125.592,36.582,142.77,36.485,156.437,36.765z M156.437,47.111v-4.582
	c-21.291-0.297-39.819,0.312-50.316,0.785v4.704C125.592,46.927,142.77,46.832,156.437,47.111z M156.437,100.342v-5.239
	c-21.291-0.275-39.819,0.291-50.316,0.73v5.353C125.592,100.172,142.77,100.083,156.437,100.342z M156.437,68.801v-5.283
	c-21.291-0.286-39.819,0.301-50.316,0.757v5.369C125.592,68.63,142.77,68.541,156.437,68.801z M156.437,132.375v-26.673
	c-21.291-0.276-39.819,0.29-50.316,0.729v16.349c5.642-0.262,11.108-0.461,16.333-0.595v4.77
	c-6.533,0.138-12.085,0.313-16.333,0.472v5.696C125.592,132.224,142.77,132.144,156.437,132.375z M156.437,174.766v-6.1
	c-21.291-0.244-39.819,0.258-50.316,0.648v6.199C125.592,174.615,142.77,174.535,156.437,174.766z M156.437,185.365v-5.848
	c-21.291-0.246-39.819,0.256-50.316,0.646v5.949C125.592,185.215,142.77,185.135,156.437,185.365z M156.437,163.916v-5.848
	c-21.291-0.244-39.819,0.258-50.316,0.646v5.949C125.592,163.766,142.77,163.686,156.437,163.916z M156.437,153.318v-16.193
	c-21.291-0.245-39.819,0.258-50.316,0.646v5.699c5.642-0.262,11.108-0.461,16.333-0.594v4.77
	c-6.533,0.137-12.085,0.312-16.333,0.471v5.949C125.592,153.168,142.77,153.088,156.437,153.318z"/>
<linearGradient id="SVGID_34_" gradientUnits="userSpaceOnUse" x1="175.2031" y1="21.5942" x2="175.2031" y2="270.0149">
	<stop  offset="0" style="stop-color:#F6921E"/>
	<stop  offset="0.3462" style="stop-color:#F04E22"/>
	<stop  offset="0.5273" style="stop-color:#ED3024"/>
	<stop  offset="1" style="stop-color:#4C3539"/>
</linearGradient>
<path fill="url(#SVGID_34_)" d="M193.954,110.174l-1.587-75.546l-2.344-2.06h-9.451v-7.631l-24.135-1.103v12.931
	c20.857,0.427,33.518,1.731,33.518,1.731s0,3.28,0,5.299c-11.427-0.74-22.819-1.117-33.518-1.267v4.582
	c20.857,0.427,33.518,1.731,33.518,1.731s0,3.28,0,5.299c-11.427-0.74-22.819-1.117-33.518-1.267v5.081
	c20.857,0.412,33.518,1.671,33.518,1.671s0,3.165,0,5.113c-11.427-0.714-22.819-1.078-33.518-1.222v5.283
	c20.857,0.396,33.518,1.609,33.518,1.609s0,3.05,0,4.927c-11.427-0.688-22.819-1.039-33.518-1.178v5.239
	c20.857,0.397,33.518,1.61,33.518,1.61s0,3.05,0,4.926c-11.427-0.688-22.819-1.039-33.518-1.178v4.987
	c20.857,0.397,33.518,1.61,33.518,1.61s0,3.049,0,4.926c-11.427-0.688-22.819-1.039-33.518-1.178v5.239
	c20.857,0.397,33.518,1.61,33.518,1.61s0,3.05,0,4.927c-11.427-0.688-22.819-1.039-33.518-1.178v26.673
	c20.857,0.353,33.518,1.428,33.518,1.428s0,2.702,0,4.366c-11.427-0.609-22.819-0.92-33.518-1.043v16.193
	c20.857,0.352,33.518,1.428,33.518,1.428s0,2.703,0,4.365c-11.427-0.609-22.819-0.92-33.518-1.043v5.848
	c20.857,0.352,33.518,1.428,33.518,1.428s0,2.703,0,4.367c-11.427-0.611-22.819-0.922-33.518-1.045v6.1
	c20.857,0.354,33.518,1.428,33.518,1.428s0,2.703,0,4.367c-11.427-0.609-22.819-0.92-33.518-1.043v5.848
	c20.857,0.352,33.518,1.428,33.518,1.428s0,2.701,0,4.365c-11.427-0.609-22.819-0.92-33.518-1.043v19.334h37.532v-99.28
	L193.954,110.174z"/>
<linearGradient id="SVGID_35_" gradientUnits="userSpaceOnUse" x1="102.2046" y1="22.9272" x2="102.2046" y2="270.3226">
	<stop  offset="0" style="stop-color:#F37920"/>
	<stop  offset="0.3189" style="stop-color:#D84328"/>
	<stop  offset="0.5273" style="stop-color:#C8252C"/>
	<stop  offset="1" style="stop-color:#363639"/>
</linearGradient>
<path fill="url(#SVGID_35_)" d="M98.288,214.926h7.833v-24.164c-3.662,0.137-6.349,0.258-7.833,0.33V214.926z M98.288,186.51
	c2.653-0.148,5.257-0.277,7.833-0.396v-5.949c-3.662,0.135-6.349,0.258-7.833,0.33V186.51z M98.288,123.176
	c2.653-0.148,5.255-0.277,7.833-0.396v-16.349c-3.662,0.153-6.349,0.291-7.833,0.372V123.176z M98.288,70.091
	c2.653-0.168,5.257-0.313,7.833-0.447v-5.369c-3.662,0.159-6.349,0.302-7.833,0.386V70.091z M98.288,80.69
	c2.653-0.168,5.257-0.313,7.833-0.447v-5.354c-3.662,0.153-6.349,0.291-7.833,0.372V80.69z M98.288,48.5
	c2.653-0.181,5.257-0.337,7.833-0.481v-4.704c-3.662,0.165-6.349,0.313-7.833,0.4V48.5z M104.065,23.722v3.127h-2.224v-3.02
	c-1.545,0.078-2.731,0.147-3.553,0.198v14.125c2.653-0.18,5.257-0.337,7.833-0.481v-14.04
	C105.399,23.663,104.708,23.693,104.065,23.722z M98.288,91.036c2.653-0.168,5.257-0.313,7.833-0.447v-5.101
	c-3.662,0.153-6.349,0.291-7.833,0.372V91.036z M98.288,59.295c2.653-0.174,5.257-0.325,7.833-0.465V53.66
	c-3.662,0.165-6.349,0.313-7.833,0.4V59.295z M98.288,154.463c2.653-0.148,5.257-0.277,7.833-0.396v-5.949
	c-3.656,0.137-6.349,0.258-7.833,0.33V154.463z M98.288,165.061c2.653-0.148,5.257-0.277,7.833-0.396v-5.949
	c-3.662,0.137-6.349,0.26-7.833,0.33V165.061z M98.288,101.633c2.653-0.168,5.257-0.313,7.833-0.447v-5.353
	c-3.662,0.153-6.349,0.291-7.833,0.372V101.633z M98.288,175.91c2.653-0.148,5.257-0.277,7.833-0.396v-6.199
	c-3.662,0.135-6.349,0.258-7.833,0.328V175.91z M98.288,133.519c2.653-0.148,5.257-0.277,7.833-0.396v-5.696
	c-3.656,0.136-6.349,0.258-7.833,0.329V133.519z M98.288,143.867c2.653-0.148,5.255-0.277,7.833-0.396v-5.699
	c-3.662,0.137-6.349,0.258-7.833,0.33V143.867z"/>
<linearGradient id="SVGID_36_" gradientUnits="userSpaceOnUse" x1="102.2046" y1="21.5947" x2="102.2046" y2="270.015">
	<stop  offset="0" style="stop-color:#F89C1C"/>
	<stop  offset="0.3355" style="stop-color:#F15E21"/>
	<stop  offset="0.5273" style="stop-color:#EE4023"/>
	<stop  offset="1" style="stop-color:#743237"/>
</linearGradient>
<path fill="url(#SVGID_36_)" d="M98.288,186.51c2.653-0.148,5.257-0.277,7.833-0.396v-5.949c-3.662,0.135-6.349,0.258-7.833,0.33
	V186.51z"/>
<linearGradient id="SVGID_37_" gradientUnits="userSpaceOnUse" x1="102.2046" y1="21.6138" x2="102.2046" y2="270.0349">
	<stop  offset="0" style="stop-color:#F89C1C"/>
	<stop  offset="0.3355" style="stop-color:#F15E21"/>
	<stop  offset="0.5273" style="stop-color:#EE4023"/>
	<stop  offset="1" style="stop-color:#743237"/>
</linearGradient>
<path fill="url(#SVGID_37_)" d="M98.288,191.092v23.834h7.833v-24.164C102.459,190.898,99.772,191.02,98.288,191.092z"/>
<linearGradient id="SVGID_38_" gradientUnits="userSpaceOnUse" x1="90.7422" y1="3.9751" x2="90.7422" y2="269.4846">
	<stop  offset="0" style="stop-color:#EC1C24"/>
	<stop  offset="0.2812" style="stop-color:#C4252C"/>
	<stop  offset="0.5273" style="stop-color:#A62C32"/>
	<stop  offset="1" style="stop-color:#363639"/>
</linearGradient>
<polygon fill="url(#SVGID_38_)" points="98.288,21.456 98.276,21.456 98.276,5.753 83.305,3.975 83.196,3.983 83.196,214.926 
	98.288,214.926 "/>
<linearGradient id="SVGID_39_" gradientUnits="userSpaceOnUse" x1="167.25" y1="8.2607" x2="167.25" y2="240.6517">
	<stop  offset="0" style="stop-color:#F26F21"/>
	<stop  offset="0.3166" style="stop-color:#EE3A23"/>
	<stop  offset="0.5273" style="stop-color:#EC1C24"/>
	<stop  offset="1" style="stop-color:#743237"/>
</linearGradient>
<path fill="url(#SVGID_39_)" d="M155.516,10.197c0,0,0,7.704,0,11.259v2.336l23.469,1.072V9.013L155.516,10.197z"/>
<linearGradient id="SVGID_40_" gradientUnits="userSpaceOnUse" x1="186.4766" y1="8.2617" x2="186.4765" y2="269.8257">
	<stop  offset="0" style="stop-color:#EE4023"/>
	<stop  offset="0.2316" style="stop-color:#D33529"/>
	<stop  offset="0.5273" style="stop-color:#B5292F"/>
	<stop  offset="1" style="stop-color:#363639"/>
</linearGradient>
<polygon fill="url(#SVGID_40_)" points="180.572,32.568 190.023,32.568 192.367,34.628 193.954,110.174 193.969,110.169 
	193.969,10.79 178.999,9.012 178.984,9.013 178.984,24.864 180.572,24.937 "/>
<linearGradient id="SVGID_41_" gradientUnits="userSpaceOnUse" x1="67.3994" y1="3.9829" x2="67.3994" y2="270.3685">
	<stop  offset="0" style="stop-color:#F26F21"/>
	<stop  offset="0.3166" style="stop-color:#EE3A23"/>
	<stop  offset="0.5273" style="stop-color:#EC1C24"/>
	<stop  offset="1" style="stop-color:#743237"/>
</linearGradient>
<polygon fill="url(#SVGID_41_)" points="83.196,3.983 58.354,5.753 58.354,137.893 54.832,137.893 54.832,140.561 53.364,140.561 
	53.364,145.596 51.603,146.486 51.603,214.926 64.955,214.926 64.955,16.039 67.955,16.039 67.955,214.926 83.196,214.926 "/>
<linearGradient id="SVGID_42_" gradientUnits="userSpaceOnUse" x1="66.4546" y1="2.9272" x2="66.4546" y2="269.985">
	<stop  offset="0" style="stop-color:#EE4023"/>
	<stop  offset="0.2316" style="stop-color:#D33529"/>
	<stop  offset="0.5273" style="stop-color:#B5292F"/>
	<stop  offset="1" style="stop-color:#363639"/>
</linearGradient>
<rect x="64.955" y="16.039" fill="url(#SVGID_42_)" width="3" height="198.887"/>
<linearGradient id="SVGID_43_" gradientUnits="userSpaceOnUse" x1="144.1211" y1="19.5942" x2="144.1211" y2="270.3915">
	<stop  offset="0" style="stop-color:#EC1C24"/>
	<stop  offset="0.1681" style="stop-color:#C4252C"/>
	<stop  offset="0.3152" style="stop-color:#A62C32"/>
	<stop  offset="0.3759" style="stop-color:#942E33"/>
	<stop  offset="0.4843" style="stop-color:#7B3135"/>
	<stop  offset="0.5824" style="stop-color:#6B3337"/>
	<stop  offset="0.6606" style="stop-color:#663437"/>
	<stop  offset="1" style="stop-color:#000000"/>
</linearGradient>
<path fill="url(#SVGID_43_)" d="M122.455,142.877c-7.613,0.195-15.707,0.518-24.167,0.99v4.58
	c3.208-0.154,12.013-0.545,24.167-0.801V142.877z M98.288,133.519v4.583c7.875-0.381,49.564-2.18,91.667,0.066
	c0-1.664,0-4.366,0-4.366S151.594,130.531,98.288,133.519z M98.288,154.463v4.582c7.875-0.381,49.564-2.18,91.667,0.066
	c0-1.662,0-4.365,0-4.365S151.594,151.475,98.288,154.463z M98.288,186.51v4.582c7.875-0.381,49.564-2.18,91.667,0.066
	c0-1.664,0-4.365,0-4.365S151.594,183.521,98.288,186.51z M98.288,165.061v4.582c7.875-0.379,49.564-2.18,91.667,0.068
	c0-1.664,0-4.367,0-4.367S151.594,162.072,98.288,165.061z M122.455,122.185c-7.613,0.195-15.707,0.518-24.167,0.991v4.579
	c3.208-0.154,12.013-0.545,24.167-0.801V122.185z M98.288,175.91v4.584c7.875-0.381,49.564-2.182,91.667,0.066
	c0-1.664,0-4.367,0-4.367S151.594,172.922,98.288,175.91z M98.288,38.153v5.561c7.875-0.461,49.564-2.646,91.667,0.081
	c0-2.019,0-5.299,0-5.299S151.594,34.527,98.288,38.153z M98.288,59.295v5.365c7.875-0.444,49.564-2.552,91.667,0.079
	c0-1.948,0-5.113,0-5.113S151.594,55.796,98.288,59.295z M98.288,48.5v5.561c7.875-0.461,49.564-2.646,91.667,0.081
	c0-2.019,0-5.299,0-5.299S151.594,44.873,98.288,48.5z M98.288,101.633v5.17c7.875-0.429,49.564-2.459,91.667,0.076
	c0-1.877,0-4.927,0-4.927S151.594,98.262,98.288,101.633z M98.288,70.091v5.17c7.875-0.429,49.564-2.459,91.667,0.076
	c0-1.877,0-4.927,0-4.927S151.594,66.72,98.288,70.091z M98.288,91.036v5.17c7.875-0.429,49.564-2.46,91.667,0.075
	c0-1.877,0-4.926,0-4.926S151.594,87.665,98.288,91.036z M98.288,80.69v5.17c7.875-0.429,49.564-2.46,91.667,0.075
	c0-1.876,0-4.926,0-4.926S151.594,77.319,98.288,80.69z"/>
<linearGradient id="SVGID_44_" gradientUnits="userSpaceOnUse" x1="126.9019" y1="19.2612" x2="126.9018" y2="270.2751">
	<stop  offset="0" style="stop-color:#F05A22"/>
	<stop  offset="0.5273" style="stop-color:#EE4023"/>
	<stop  offset="1" style="stop-color:#743237"/>
</linearGradient>
<path fill="url(#SVGID_44_)" d="M101.841,26.85h2.224v-3.127c1.145-0.052,2.409-0.107,3.812-0.162v3.049h2.224v-3.131
	c2.167-0.076,4.573-0.148,7.227-0.214v3.024h2.224v-3.075c1.172-0.024,2.399-0.047,3.653-0.068v2.741h2.224v-2.773
	c1.136-0.016,2.298-0.03,3.495-0.041v2.814h2.224v-2.832c4.699-0.03,9.818-0.024,15.328,0.036v2.717h2.224v-2.689
	c2.212,0.029,4.494,0.07,6.819,0.118v-1.781c-21.933-1.476-56.965-0.012-57.228,0v2.572c0.822-0.051,2.008-0.12,3.553-0.198V26.85z"
	/>
<linearGradient id="SVGID_45_" gradientUnits="userSpaceOnUse" x1="37.9243" y1="147.7598" x2="37.9243" y2="270.1145">
	<stop  offset="0" style="stop-color:#F37920"/>
	<stop  offset="0.1958" style="stop-color:#E33F25"/>
	<stop  offset="0.3152" style="stop-color:#DA2128"/>
	<stop  offset="0.4064" style="stop-color:#D62229"/>
	<stop  offset="0.6606" style="stop-color:#D1232A"/>
	<stop  offset="1" style="stop-color:#613438"/>
</linearGradient>
<path fill="url(#SVGID_45_)" d="M49.36,158.074l-0.337,0.324h-7.505l-4.95,1.438v110.34h39.282V157.76L49.36,158.074z
	 M8.144,151.852c0,0.799-8.144,0-8.144,0v118.324h26.827V148.18H8.144C8.144,148.18,8.144,151.053,8.144,151.852z"/>
<linearGradient id="SVGID_46_" gradientUnits="userSpaceOnUse" x1="66.4277" y1="142.8955" x2="66.4277" y2="270.3886">
	<stop  offset="0" style="stop-color:#EE4023"/>
	<stop  offset="0.1294" style="stop-color:#D63628"/>
	<stop  offset="0.3152" style="stop-color:#B8292F"/>
	<stop  offset="0.493" style="stop-color:#AB2B31"/>
	<stop  offset="0.6606" style="stop-color:#A62C32"/>
	<stop  offset="1" style="stop-color:#613438"/>
</linearGradient>
<path fill="url(#SVGID_46_)" d="M75.849,157.76v112.416h30.18V160.475L75.849,157.76z M49.022,148.658l-4.312-0.32v-4.631h-2.236
	v4.791l-15.489-0.318h-0.16v121.996h9.74v-110.34l4.95-1.438h7.505l0.337-0.324l-0.337,0.004V148.658z"/>
<linearGradient id="SVGID_47_" gradientUnits="userSpaceOnUse" x1="95.6909" y1="207.2432" x2="95.6909" y2="270.4337">
	<stop  offset="0" style="stop-color:#F48120"/>
	<stop  offset="0.065" style="stop-color:#F37820"/>
	<stop  offset="0.3152" style="stop-color:#F05A22"/>
	<stop  offset="0.3705" style="stop-color:#EF4A23"/>
	<stop  offset="0.4809" style="stop-color:#ED3123"/>
	<stop  offset="0.5809" style="stop-color:#EC2124"/>
	<stop  offset="0.6606" style="stop-color:#EC1C24"/>
	<stop  offset="1" style="stop-color:#843135"/>
</linearGradient>
<polygon fill="url(#SVGID_47_)" points="120.101,212.945 109.591,213.799 109.591,206.977 98.573,206.977 98.573,214.48 
	83.994,215.162 71.281,217.721 71.281,218.232 80.943,218.232 77.553,221.119 77.553,225.809 83.316,226.078 88.571,227.102 
	88.571,219.938 90.775,219.938 90.775,227.443 92.3,228.465 92.3,231.535 90.944,233.072 90.944,231.195 88.062,231.195 
	88.062,229.318 86.876,228.125 84.333,228.125 83.147,226.932 78.538,226.932 78.538,234.264 79.926,234.264 76.705,238.359 
	79.926,238.359 79.926,255.414 81.705,254.844 84.121,255.262 84.871,270.252 120.101,270.252 "/>
<linearGradient id="SVGID_48_" gradientUnits="userSpaceOnUse" x1="41.3613" y1="200.7217" x2="41.3613" y2="270.4472">
	<stop  offset="0" style="stop-color:#EE4023"/>
	<stop  offset="0.1294" style="stop-color:#D63628"/>
	<stop  offset="0.3152" style="stop-color:#B8292F"/>
	<stop  offset="0.3507" style="stop-color:#BC282E"/>
	<stop  offset="0.5231" style="stop-color:#CC242B"/>
	<stop  offset="0.6606" style="stop-color:#D1232A"/>
	<stop  offset="1" style="stop-color:#613438"/>
</linearGradient>
<polygon fill="url(#SVGID_48_)" points="46.362,222.164 46.362,201.018 46.192,201.008 36.361,201.008 36.361,222.164 "/>
<linearGradient id="SVGID_49_" gradientUnits="userSpaceOnUse" x1="76.1118" y1="200.7197" x2="76.1118" y2="270.8835">
	<stop  offset="0" style="stop-color:#EE4023"/>
	<stop  offset="0.1294" style="stop-color:#D63628"/>
	<stop  offset="0.3152" style="stop-color:#B8292F"/>
	<stop  offset="0.3507" style="stop-color:#BC282E"/>
	<stop  offset="0.5231" style="stop-color:#CC242B"/>
	<stop  offset="0.6606" style="stop-color:#D1232A"/>
	<stop  offset="1" style="stop-color:#613438"/>
</linearGradient>
<polygon fill="url(#SVGID_49_)" points="71.281,218.238 71.281,218.922 77.553,218.922 77.553,221.127 80.943,218.238 "/>
<linearGradient id="SVGID_50_" gradientUnits="userSpaceOnUse" x1="44.752" y1="220.4678" x2="44.7519" y2="271.1071">
	<stop  offset="0" style="stop-color:#DA2128"/>
	<stop  offset="0.3152" style="stop-color:#D32229"/>
	<stop  offset="0.6606" style="stop-color:#D1232A"/>
	<stop  offset="1" style="stop-color:#613438"/>
</linearGradient>
<polygon fill="url(#SVGID_50_)" points="52.634,226.6 52.634,222.334 45.854,222.334 45.572,222.164 36.869,222.164 36.869,226.6 
	"/>
<linearGradient id="SVGID_51_" gradientUnits="userSpaceOnUse" x1="29.1562" y1="200.4961" x2="29.1562" y2="269.8718">
	<stop  offset="0" style="stop-color:#A12D32"/>
	<stop  offset="0.3152" style="stop-color:#BE272D"/>
	<stop  offset="0.343" style="stop-color:#BB282E"/>
	<stop  offset="0.5196" style="stop-color:#AB2B31"/>
	<stop  offset="0.6606" style="stop-color:#A62C32"/>
	<stop  offset="1" style="stop-color:#2F2C30"/>
</linearGradient>
<polygon fill="url(#SVGID_51_)" points="34.327,252.191 34.327,248.438 29.411,248.438 29.411,246.561 27.715,246.561 
	27.715,248.607 23.986,248.607 23.986,255.773 32.631,255.773 32.631,253.727 "/>
<linearGradient id="SVGID_52_" gradientUnits="userSpaceOnUse" x1="58.9907" y1="255.6191" x2="58.9907" y2="233.94">
	<stop  offset="0" style="stop-color:#EC1C24"/>
	<stop  offset="0.1346" style="stop-color:#E01F27"/>
	<stop  offset="0.5212" style="stop-color:#C2262D"/>
	<stop  offset="0.8004" style="stop-color:#A92B31"/>
	<stop  offset="1" style="stop-color:#952F34"/>
</linearGradient>
<polygon fill="url(#SVGID_52_)" points="79.926,238.371 76.705,238.371 79.926,234.275 38.056,234.275 38.056,255.773 50.6,255.773 
	79.926,255.773 "/>
<linearGradient id="SVGID_53_" gradientUnits="userSpaceOnUse" x1="31.5293" y1="196.7451" x2="31.5293" y2="323.4085">
	<stop  offset="0" style="stop-color:#F26F21"/>
	<stop  offset="0.1043" style="stop-color:#F15E22"/>
	<stop  offset="0.3152" style="stop-color:#EE4023"/>
	<stop  offset="0.3454" style="stop-color:#E63D25"/>
	<stop  offset="0.4654" style="stop-color:#CD322A"/>
	<stop  offset="0.574" style="stop-color:#BD2B2E"/>
	<stop  offset="0.6606" style="stop-color:#B8292F"/>
	<stop  offset="1" style="stop-color:#2F2C30"/>
</linearGradient>
<polygon fill="url(#SVGID_53_)" points="50.6,259.85 50.6,255.756 18.223,255.756 12.29,255.756 12.29,270.252 50.77,270.252 
	50.77,259.85 "/>
<linearGradient id="SVGID_54_" gradientUnits="userSpaceOnUse" x1="67.1924" y1="196.7451" x2="67.1924" y2="323.4085">
	<stop  offset="0" style="stop-color:#F26F21"/>
	<stop  offset="0.1043" style="stop-color:#F15E22"/>
	<stop  offset="0.3152" style="stop-color:#EE4023"/>
	<stop  offset="0.3454" style="stop-color:#E63D25"/>
	<stop  offset="0.4654" style="stop-color:#CD322A"/>
	<stop  offset="0.574" style="stop-color:#BD2B2E"/>
	<stop  offset="0.6606" style="stop-color:#B8292F"/>
	<stop  offset="1" style="stop-color:#2F2C30"/>
</linearGradient>
<polygon fill="url(#SVGID_54_)" points="82.13,255.756 80.435,255.756 80.435,259.85 50.77,259.85 50.77,270.252 83.615,270.252 "/>
<linearGradient id="SVGID_55_" gradientUnits="userSpaceOnUse" x1="84.709" y1="200.9688" x2="84.709" y2="270.6725">
	<stop  offset="0" style="stop-color:#EE4023"/>
	<stop  offset="0.0589" style="stop-color:#E63B25"/>
	<stop  offset="0.3152" style="stop-color:#C8252C"/>
	<stop  offset="0.4064" style="stop-color:#CC242B"/>
	<stop  offset="0.6606" style="stop-color:#D1232A"/>
	<stop  offset="1" style="stop-color:#613438"/>
</linearGradient>
<polygon fill="url(#SVGID_55_)" points="83.147,226.939 84.333,228.135 86.876,228.135 88.062,229.328 88.062,231.205 
	90.944,231.205 90.944,233.082 92.3,231.547 92.3,228.475 90.775,227.451 90.775,219.945 88.571,219.945 88.571,227.111 
	83.316,226.086 77.553,225.818 77.553,226.6 77.117,226.6 77.553,226.939 "/>
<linearGradient id="SVGID_56_" gradientUnits="userSpaceOnUse" x1="120.3037" y1="195.7939" x2="120.3037" y2="270.6313">
	<stop  offset="0" style="stop-color:#F05A22"/>
	<stop  offset="0.1515" style="stop-color:#EE3A23"/>
	<stop  offset="0.3152" style="stop-color:#EC1C24"/>
	<stop  offset="0.3909" style="stop-color:#D42129"/>
	<stop  offset="0.4935" style="stop-color:#BB272E"/>
	<stop  offset="0.5865" style="stop-color:#AB2B31"/>
	<stop  offset="0.6606" style="stop-color:#A62C32"/>
	<stop  offset="1" style="stop-color:#2F2C30"/>
</linearGradient>
<path fill="url(#SVGID_56_)" d="M130.895,197.531v72.74h12.452v-72.74H130.895z M121.479,202.012v9.965h-2.45l-0.1-0.061v0.061
	h-3.439v5.158h-13.241l-4.987,1.205v51.932h30.719v-68.27h-6.473L121.479,202.012z"/>
<linearGradient id="SVGID_57_" gradientUnits="userSpaceOnUse" x1="124.9111" y1="196.2109" x2="124.9111" y2="270.1928">
	<stop  offset="0" style="stop-color:#F6921E"/>
	<stop  offset="0.1355" style="stop-color:#F37820"/>
	<stop  offset="0.3152" style="stop-color:#F05A22"/>
	<stop  offset="0.3418" style="stop-color:#EB5323"/>
	<stop  offset="0.4632" style="stop-color:#D83A28"/>
	<stop  offset="0.5731" style="stop-color:#CC2A2B"/>
	<stop  offset="0.6606" style="stop-color:#C8252C"/>
	<stop  offset="1" style="stop-color:#2F2C30"/>
</linearGradient>
<path fill="url(#SVGID_57_)" d="M128.902,197.531v4.471h-0.921v68.27h2.914v-72.74H128.902z M118.928,211.916l0.1,0.061h2.45v-9.965
	l-2.55,0.852V211.916z"/>
<linearGradient id="SVGID_58_" gradientUnits="userSpaceOnUse" x1="186.0908" y1="169.2354" x2="186.0908" y2="271.6031">
	<stop  offset="0" style="stop-color:#FCB813"/>
	<stop  offset="0.0486" style="stop-color:#FBAC15"/>
	<stop  offset="0.3681" style="stop-color:#F25E1F"/>
	<stop  offset="0.5152" style="stop-color:#EE4023"/>
	<stop  offset="0.5847" style="stop-color:#E03B26"/>
	<stop  offset="0.7428" style="stop-color:#C7322B"/>
	<stop  offset="0.886" style="stop-color:#B72C2F"/>
	<stop  offset="1" style="stop-color:#B22A30"/>
</linearGradient>
<polygon fill="url(#SVGID_58_)" points="204.826,182.76 204.826,170.707 183.704,170.707 183.704,182.76 176.544,182.76 
	176.242,182.402 159.719,182.402 159.719,223.162 212.462,223.162 212.462,182.76 "/>
<linearGradient id="SVGID_59_" gradientUnits="userSpaceOnUse" x1="166.1626" y1="170.0078" x2="166.1626" y2="343.3074">
	<stop  offset="0" style="stop-color:#FFCA05"/>
	<stop  offset="0.1046" style="stop-color:#FBAC0C"/>
	<stop  offset="0.3857" style="stop-color:#F25E1C"/>
	<stop  offset="0.5152" style="stop-color:#EE4023"/>
	<stop  offset="0.5847" style="stop-color:#E03B26"/>
	<stop  offset="0.7428" style="stop-color:#C7322B"/>
	<stop  offset="0.886" style="stop-color:#B72C2F"/>
	<stop  offset="1" style="stop-color:#B22A30"/>
</linearGradient>
<path fill="url(#SVGID_59_)" d="M148.621,193.262l8.95,12.291h2.148v-23.15l-11.098,2.625V193.262z M176.544,171.9v10.502h-0.302
	l0.302,0.357h7.16v-12.053L176.544,171.9z"/>
<linearGradient id="SVGID_60_" gradientUnits="userSpaceOnUse" x1="227.999" y1="57.3257" x2="227.999" y2="257.7305">
	<stop  offset="0" style="stop-color:#FFCC02"/>
	<stop  offset="0.2308" style="stop-color:#FBB00F"/>
	<stop  offset="0.5152" style="stop-color:#F6921E"/>
	<stop  offset="0.5761" style="stop-color:#F5861F"/>
	<stop  offset="0.7375" style="stop-color:#F26D21"/>
	<stop  offset="0.8836" style="stop-color:#F15D22"/>
	<stop  offset="1" style="stop-color:#F05822"/>
</linearGradient>
<polygon fill="url(#SVGID_60_)" points="227.891,93.939 227.891,93.968 228.107,93.939 "/>
<rect x="253.08" y="97.696" fill="none" width="10.25" height="12.25"/>
<rect x="253.08" y="97.696" fill="none" width="10.25" height="12.25"/>
<rect x="253.08" y="97.696" fill="none" width="10.25" height="12.25"/>
<rect x="280.29" y="93.998" fill="none" width="1.083" height="0.155"/>
<rect x="253.08" y="97.696" fill="none" width="10.25" height="12.25"/>
<linearGradient id="SVGID_61_" gradientUnits="userSpaceOnUse" x1="258.3125" y1="68.2251" x2="258.3125" y2="270.9843">
	<stop  offset="0" style="stop-color:#F9A51A"/>
	<stop  offset="0.1019" style="stop-color:#F6881C"/>
	<stop  offset="0.3848" style="stop-color:#EF3A22"/>
	<stop  offset="0.5152" style="stop-color:#EC1C24"/>
	<stop  offset="0.6246" style="stop-color:#D32229"/>
	<stop  offset="0.7675" style="stop-color:#BA272E"/>
	<stop  offset="0.8969" style="stop-color:#AA2B31"/>
	<stop  offset="1" style="stop-color:#A52C32"/>
</linearGradient>
<path fill="url(#SVGID_61_)" d="M227.891,191.529h60.843v-3.666h-60.843V191.529z M288.734,111.258l-2.598-0.433v-1.13h-20.431
	V97.821h20.431v-3.018l-1.516-0.65v-0.155h-3.248v0.155h-1.083v-0.155h-3.464v0.155h-3.248V93.85h-39.624v0.089h-5.847l-0.216,0.029
	v3.728h23.314v12.25h-23.314v3.131l29.189,0.119l-12.5,8.875h-16.689v3.959h3.397v4.334h-3.397v3.809l13.564-0.227l1.75,1.75h9
	l1.875-1.625h11.5l1.25,1.75h8.75l1.375-1.375h11.779v-3.416h-3.446v-4.334h3.446v-3.893l-15.779-0.232l-10.625-9.375l26.404,0.358
	V111.258z M263.33,109.946h-10.25v-12.25h10.25V109.946z M227.891,205.863h60.843v-3.5h-60.843V205.863z M227.891,177.029h60.843
	v-2.832h-60.843V177.029z M227.891,148.543l52.897,0.486h7.946v-3.844l-60.843-0.357V148.543z M267.288,156.029h-14.833l-2.5,2.834
	h-22.064v4h13.397l1.417,1.416h9.75l1.375-1.375h11.625l1.062,1.062h22.217v-5.104h-19.113L267.288,156.029z M227.891,241.607
	h60.843v-30.744h-60.843V241.607z"/>
<linearGradient id="SVGID_62_" gradientUnits="userSpaceOnUse" x1="258.3125" y1="64.23" x2="258.3125" y2="246.2461">
	<stop  offset="0" style="stop-color:#F05A22"/>
	<stop  offset="0.1262" style="stop-color:#DF4326"/>
	<stop  offset="0.3152" style="stop-color:#C8252C"/>
	<stop  offset="0.3503" style="stop-color:#B8272E"/>
	<stop  offset="0.4399" style="stop-color:#952D32"/>
	<stop  offset="0.5241" style="stop-color:#7B3135"/>
	<stop  offset="0.6001" style="stop-color:#6B3336"/>
	<stop  offset="0.6606" style="stop-color:#663437"/>
	<stop  offset="1" style="stop-color:#000000"/>
</linearGradient>
<path fill="url(#SVGID_62_)" d="M251.205,97.696h-23.314v12.25h23.314V97.696z M263.33,109.946v-12.25h-10.25v12.25H263.33z
	 M231.288,126.03h-3.397v4.334h3.397V126.03z M257.08,113.196l-29.189-0.119v8.994h16.689L257.08,113.196z M284.62,85.925h-3.248
	v8.072h3.248V85.925z M280.29,86.792h-3.464v7.206h3.464V86.792z M273.577,77.698l-39.407-0.432l-0.216,0.046V93.85h39.624V77.698z
	 M265.705,109.696h20.431V97.821h-20.431V109.696z M275.58,135.821h-8.75l-1.25-1.75h-11.5l-1.875,1.625h-9l-1.75-1.75
	l-13.564,0.227v10.656l60.843,0.357v-10.74h-11.779L275.58,135.821z M285.288,131.03h3.446v-4.334h-3.446V131.03z M262.33,113.196
	l10.625,9.375l15.779,0.232v-9.249L262.33,113.196z M227.891,148.543v10.32h22.064l2.5-2.834h14.833l2.333,2.834h19.113v-9.834
	h-7.946L227.891,148.543z M227.891,187.863h60.843v-10.834h-60.843V187.863z M227.891,202.363h60.843v-10.834h-60.843V202.363z
	 M265.455,162.904H253.83l-1.375,1.375h-9.75l-1.417-1.416h-13.397v11.334h60.843v-10.23h-22.217L265.455,162.904z M227.891,210.863
	h60.843v-5h-60.843V210.863z"/>
<linearGradient id="SVGID_63_" gradientUnits="userSpaceOnUse" x1="218.688" y1="77.2788" x2="218.688" y2="270.1582">
	<stop  offset="0" style="stop-color:#FCB813"/>
	<stop  offset="0.0486" style="stop-color:#FBAC15"/>
	<stop  offset="0.3681" style="stop-color:#F25E1F"/>
	<stop  offset="0.5152" style="stop-color:#EE4023"/>
	<stop  offset="0.5847" style="stop-color:#E03B26"/>
	<stop  offset="0.7428" style="stop-color:#C7322B"/>
	<stop  offset="0.886" style="stop-color:#B72C2F"/>
	<stop  offset="1" style="stop-color:#B22A30"/>
</linearGradient>
<path fill="url(#SVGID_63_)" d="M210.785,165.02l17.106-2.02v-4.168l-17.106,2.021V165.02z M210.785,128.519l17.106-2.021v-4.333
	l-17.106,2.021V128.519z M210.785,136.52l17.106-2.021v-4.001l-17.106,2.021V136.52z M210.785,150.52l17.106-2.02v-3.668
	l-17.106,2.021V150.52z M209.485,216.494h1.516v25.113h16.889v-31.055l-18.405,1.215V216.494z M210.785,207.078l17.106-1.129v-4.283
	l-17.106,2.021V207.078z M210.785,115.353l17.106-2.021V110l-17.106,2.021V115.353z M210.785,179.188l17.106-2.021v-3.834
	l-17.106,2.021V179.188z M210.785,193.354l17.106-2.02V187.5l-17.106,2.02V193.354z M210.785,96.321v2.532l17.106-2.021v-2.864
	L210.785,96.321z"/>
<linearGradient id="SVGID_64_" gradientUnits="userSpaceOnUse" x1="221.7197" y1="76.3618" x2="221.7197" y2="241.4954">
	<stop  offset="0" style="stop-color:#F48120"/>
	<stop  offset="0.2099" style="stop-color:#EE3A23"/>
	<stop  offset="0.3152" style="stop-color:#EC1C24"/>
	<stop  offset="0.3909" style="stop-color:#D42129"/>
	<stop  offset="0.4935" style="stop-color:#BB272E"/>
	<stop  offset="0.5865" style="stop-color:#AB2B31"/>
	<stop  offset="0.6606" style="stop-color:#A62C32"/>
	<stop  offset="1" style="stop-color:#2F2C30"/>
</linearGradient>
<path fill="url(#SVGID_64_)" d="M228.107,78.565v15.374h5.847V77.312L228.107,78.565z M210.785,175.354l17.106-2.021V163
	l-17.106,2.02V175.354z M210.785,189.52l17.106-2.02v-10.334l-17.106,2.021V189.52z M210.785,203.688l17.106-2.021v-10.332
	l-17.106,2.02V203.688z M210.785,160.854l17.106-2.021V148.5l-17.106,2.02V160.854z M210.785,211.514h-1.299v0.254l18.405-1.215
	v-4.604l-17.106,1.129V211.514z M210.785,146.854l17.106-2.021V134.5l-17.106,2.021V146.854z M210.785,112.02L227.891,110V96.833
	l-17.106,2.021V112.02z M210.785,124.186l17.106-2.021v-8.833l-17.106,2.021V124.186z M210.785,132.519l17.106-2.021v-4
	l-17.106,2.021V132.519z"/>
<linearGradient id="SVGID_65_" gradientUnits="userSpaceOnUse" x1="210.1309" y1="194.7607" x2="210.1309" y2="270.7187">
	<stop  offset="0" style="stop-color:#F05A22"/>
	<stop  offset="0.1294" style="stop-color:#DF4226"/>
	<stop  offset="0.3152" style="stop-color:#CA242B"/>
	<stop  offset="0.4118" style="stop-color:#BB272E"/>
	<stop  offset="0.5501" style="stop-color:#AB2B31"/>
	<stop  offset="0.6606" style="stop-color:#A62C32"/>
	<stop  offset="1" style="stop-color:#242024"/>
</linearGradient>
<polygon fill="url(#SVGID_65_)" points="222.188,264.299 222.188,262.617 218.963,262.617 218.963,263.598 209.29,263.598 
	207.748,262.336 206.345,263.316 205.504,262.477 204.733,261.705 204.733,257.289 206.065,255.887 206.065,251.4 204.803,250.42 
	204.803,244.672 206.345,243.41 206.345,240.045 204.523,238.361 204.523,232.053 206.345,230.791 206.345,224.764 205.984,224.764 
	208.292,222.297 208.269,222.297 208.269,214.248 193.728,214.248 193.728,224.764 192.886,224.764 192.886,230.512 
	194.709,230.512 194.709,238.082 192.746,239.623 192.746,243.129 194.569,244.531 194.569,249.297 193.027,251.26 193.027,255.887 
	194.289,256.729 194.289,262.336 192.746,264.439 192.746,268.785 193.729,270.297 227.515,270.297 227.515,264.299 "/>
<linearGradient id="SVGID_66_" gradientUnits="userSpaceOnUse" x1="163.2349" y1="213.9277" x2="163.2349" y2="270.3171">
	<stop  offset="0" style="stop-color:#F26F21"/>
	<stop  offset="0.1003" style="stop-color:#F15E22"/>
	<stop  offset="0.303" style="stop-color:#EE4023"/>
	<stop  offset="0.6606" style="stop-color:#EE4023"/>
	<stop  offset="1" style="stop-color:#A82C31"/>
</linearGradient>
<rect x="149.145" y="216.211" fill="url(#SVGID_66_)" width="28.18" height="54.086"/>
<linearGradient id="SVGID_67_" gradientUnits="userSpaceOnUse" x1="190.293" y1="191.5762" x2="190.293" y2="270.76">
	<stop  offset="0" style="stop-color:#FFCC02"/>
	<stop  offset="0.2308" style="stop-color:#FBB00F"/>
	<stop  offset="0.5152" style="stop-color:#F6921E"/>
	<stop  offset="0.5761" style="stop-color:#F5861F"/>
	<stop  offset="0.7375" style="stop-color:#F26D21"/>
	<stop  offset="0.8836" style="stop-color:#F15D22"/>
	<stop  offset="1" style="stop-color:#F05822"/>
</linearGradient>
<path fill="url(#SVGID_67_)" d="M185.876,197.145v22.432h3.926v50.721h3.926l-0.982-1.512v-4.346l1.542-2.104v-5.607l-1.262-0.842
	v-4.627l1.542-1.963v-4.766l-1.823-1.402v-3.506l1.963-1.541v-7.57h-1.823v-5.748h0.841c0-9.857,0-17.809,0-20.049
	C193.728,197.566,185.876,197.145,185.876,197.145z"/>
<linearGradient id="SVGID_68_" gradientUnits="userSpaceOnUse" x1="222.0625" y1="216.0947" x2="222.0625" y2="270.6289">
	<stop  offset="0" style="stop-color:#F48120"/>
	<stop  offset="0.0625" style="stop-color:#F37820"/>
	<stop  offset="0.303" style="stop-color:#F05A22"/>
	<stop  offset="0.3473" style="stop-color:#F05522"/>
	<stop  offset="0.5216" style="stop-color:#EE4523"/>
	<stop  offset="0.6606" style="stop-color:#EE4023"/>
	<stop  offset="1" style="stop-color:#763237"/>
</linearGradient>
<polygon fill="url(#SVGID_68_)" points="208.292,222.297 205.984,224.764 206.345,224.764 206.345,230.791 204.523,232.053 
	204.523,238.361 206.345,240.045 206.345,243.41 204.803,244.672 204.803,250.42 206.065,251.4 206.065,255.887 204.733,257.289 
	204.733,261.705 205.504,262.477 206.345,263.316 207.748,262.336 209.29,263.598 218.963,263.598 218.963,262.617 222.188,262.617 
	222.188,264.299 227.515,264.299 227.515,270.297 239.602,270.297 239.602,222.297 "/>
<linearGradient id="SVGID_69_" gradientUnits="userSpaceOnUse" x1="161.9854" y1="145.458" x2="161.9853" y2="484.0659">
	<stop  offset="0" style="stop-color:#F26F21"/>
	<stop  offset="0.3152" style="stop-color:#F05A22"/>
	<stop  offset="0.3998" style="stop-color:#D44928"/>
	<stop  offset="0.499" style="stop-color:#BB392D"/>
	<stop  offset="0.589" style="stop-color:#AB2F31"/>
	<stop  offset="0.6606" style="stop-color:#A62C32"/>
	<stop  offset="1" style="stop-color:#2F2C30"/>
</linearGradient>
<polygon fill="url(#SVGID_69_)" points="165.935,192.629 165.935,190.297 157.935,190.297 157.935,193.174 166.036,192.629 "/>
<linearGradient id="SVGID_70_" gradientUnits="userSpaceOnUse" x1="188.2686" y1="145.4521" x2="188.2685" y2="484.105">
	<stop  offset="0" style="stop-color:#F26F21"/>
	<stop  offset="0.3152" style="stop-color:#F05A22"/>
	<stop  offset="0.3998" style="stop-color:#D44928"/>
	<stop  offset="0.499" style="stop-color:#BB392D"/>
	<stop  offset="0.589" style="stop-color:#AB2F31"/>
	<stop  offset="0.6606" style="stop-color:#A62C32"/>
	<stop  offset="1" style="stop-color:#2F2C30"/>
</linearGradient>
<rect x="185.602" y="191.297" fill="url(#SVGID_70_)" width="5.333" height="4.711"/>
<linearGradient id="SVGID_71_" gradientUnits="userSpaceOnUse" x1="183.5635" y1="218.2617" x2="183.5635" y2="270.6369">
	<stop  offset="0" style="stop-color:#F6921E"/>
	<stop  offset="0.0374" style="stop-color:#F58D1E"/>
	<stop  offset="0.303" style="stop-color:#F26F21"/>
	<stop  offset="0.4137" style="stop-color:#F26A21"/>
	<stop  offset="0.6606" style="stop-color:#F16522"/>
	<stop  offset="1" style="stop-color:#A82C31"/>
</linearGradient>
<polygon fill="url(#SVGID_71_)" points="177.325,219.795 177.325,270.297 189.802,270.297 189.802,219.576 187.935,219.576 
	187.935,219.795 "/>
<linearGradient id="SVGID_72_" gradientUnits="userSpaceOnUse" x1="170.2686" y1="190.208" x2="170.2686" y2="270.2386">
	<stop  offset="0" style="stop-color:#F9A51A"/>
	<stop  offset="0.2116" style="stop-color:#F68D1D"/>
	<stop  offset="0.5152" style="stop-color:#F26F21"/>
	<stop  offset="0.5187" style="stop-color:#F26E21"/>
	<stop  offset="0.6577" style="stop-color:#EF4B22"/>
	<stop  offset="0.7884" style="stop-color:#EE3123"/>
	<stop  offset="0.9062" style="stop-color:#EC2124"/>
	<stop  offset="1" style="stop-color:#EC1C24"/>
</linearGradient>
<path fill="url(#SVGID_72_)" d="M190.935,196.297v-0.289h-5.333v0.289h-5v-3.668h-14.566l-8.101,0.545v0.123h-13.136l-7.197,1.654
	v23.012l-5.333,1v51.334h16.876v-54.086h11.04v-4.291h18.125v-1.375h2.5v2l5.066,2.348v-17.748c0,0,7.851,0.422,7.851,7.57
	c0,1.357,0,4.824,0,9.533h14.541v-17.951H190.935z"/>
<linearGradient id="SVGID_73_" gradientUnits="userSpaceOnUse" x1="174.0601" y1="210.5938" x2="174.0601" y2="269.7682">
	<stop  offset="0" style="stop-color:#EE4023"/>
	<stop  offset="0.1001" style="stop-color:#DE3726"/>
	<stop  offset="0.3152" style="stop-color:#C0272D"/>
	<stop  offset="0.3579" style="stop-color:#BB282E"/>
	<stop  offset="0.5263" style="stop-color:#AB2B31"/>
	<stop  offset="0.6606" style="stop-color:#A62C32"/>
	<stop  offset="1" style="stop-color:#242024"/>
</linearGradient>
<polygon fill="url(#SVGID_73_)" points="180.81,210.545 178.31,210.545 178.31,211.92 160.185,211.92 160.185,216.211 
	177.325,216.211 177.325,219.795 187.935,219.795 187.935,219.576 185.876,219.576 185.876,214.893 180.81,212.545 "/>
<linearGradient id="SVGID_74_" gradientUnits="userSpaceOnUse" x1="302.5215" y1="130.6528" x2="302.5215" y2="270.0199">
	<stop  offset="0" style="stop-color:#F6921E"/>
	<stop  offset="0.3152" style="stop-color:#F48120"/>
	<stop  offset="0.3383" style="stop-color:#EF7721"/>
	<stop  offset="0.4314" style="stop-color:#DE5426"/>
	<stop  offset="0.5189" style="stop-color:#D23A29"/>
	<stop  offset="0.5978" style="stop-color:#CB2A2B"/>
	<stop  offset="0.6606" style="stop-color:#C8252C"/>
	<stop  offset="1" style="stop-color:#613438"/>
</linearGradient>
<polygon fill="url(#SVGID_74_)" points="294.517,131.413 294.483,131.424 294.483,147.932 291.205,147.932 291.205,147.973 
	282.648,147.973 282.235,148.072 282.235,183.994 322.809,183.994 322.809,131.413 "/>
<linearGradient id="SVGID_75_" gradientUnits="userSpaceOnUse" x1="284.5635" y1="129.6772" x2="284.5635" y2="270.7691">
	<stop  offset="0" style="stop-color:#FCB813"/>
	<stop  offset="0.0589" style="stop-color:#FBB015"/>
	<stop  offset="0.3152" style="stop-color:#F6921E"/>
	<stop  offset="0.3695" style="stop-color:#EB7721"/>
	<stop  offset="0.4535" style="stop-color:#DC5426"/>
	<stop  offset="0.5326" style="stop-color:#D13A29"/>
	<stop  offset="0.6039" style="stop-color:#CA2A2B"/>
	<stop  offset="0.6606" style="stop-color:#C8252C"/>
	<stop  offset="1" style="stop-color:#613438"/>
</linearGradient>
<path fill="url(#SVGID_75_)" d="M274.644,183.994h7.591v-35.922l-7.591,1.834V183.994z M291.205,132.517v15.415h3.278v-16.507
	L291.205,132.517z"/>
<linearGradient id="SVGID_76_" gradientUnits="userSpaceOnUse" x1="488.8315" y1="149.5801" x2="488.8315" y2="271.7149">
	<stop  offset="0" style="stop-color:#F27121"/>
	<stop  offset="0.3152" style="stop-color:#F26F21"/>
	<stop  offset="0.3998" style="stop-color:#E25325"/>
	<stop  offset="0.499" style="stop-color:#D43A29"/>
	<stop  offset="0.589" style="stop-color:#CB2A2B"/>
	<stop  offset="0.6606" style="stop-color:#C8252C"/>
	<stop  offset="1" style="stop-color:#613438"/>
</linearGradient>
<polygon fill="url(#SVGID_76_)" points="507.016,160.551 507.016,155.945 504.475,155.945 504.475,152.135 503.999,152.135 
	503.999,155.945 499.552,155.945 499.552,152.135 499.076,152.135 499.076,155.945 495.423,155.945 495.423,152.135 
	494.947,152.135 494.947,155.945 489.785,155.945 489.785,152.135 489.308,152.135 489.308,155.945 485.656,155.945 
	485.656,152.135 485.179,152.135 485.179,155.945 481.209,155.945 481.209,152.135 480.733,152.135 480.733,155.945 
	479.858,155.945 478.112,157.217 478.112,159.123 471.283,159.123 470.012,159.916 470.012,167.699 475.729,181.992 
	507.651,181.992 507.651,161.346 "/>
<linearGradient id="SVGID_77_" gradientUnits="userSpaceOnUse" x1="444.0767" y1="165.8418" x2="444.0767" y2="270.9226">
	<stop  offset="0" style="stop-color:#F6921E"/>
	<stop  offset="0.0087" style="stop-color:#F58F1E"/>
	<stop  offset="0.2186" style="stop-color:#DA4127"/>
	<stop  offset="0.3152" style="stop-color:#D0232A"/>
	<stop  offset="0.3164" style="stop-color:#D0232A"/>
	<stop  offset="0.5079" style="stop-color:#C0272D"/>
	<stop  offset="0.6606" style="stop-color:#BB282E"/>
	<stop  offset="1" style="stop-color:#793236"/>
</linearGradient>
<path fill="url(#SVGID_77_)" d="M399.181,236.432h89.792v-10.221h-89.792V236.432z M399.181,257.822h89.792v-11.646h-89.792V257.822
	z M399.181,207.197v10.221h89.792v-10.221H399.181z"/>
<linearGradient id="SVGID_78_" gradientUnits="userSpaceOnUse" x1="427.7231" y1="143.4355" x2="427.7231" y2="270.1373">
	<stop  offset="0" style="stop-color:#EC1C24"/>
	<stop  offset="0.1621" style="stop-color:#C7242B"/>
	<stop  offset="0.3152" style="stop-color:#A92B31"/>
	<stop  offset="0.427" style="stop-color:#962E33"/>
	<stop  offset="0.5569" style="stop-color:#863035"/>
	<stop  offset="0.6606" style="stop-color:#813136"/>
	<stop  offset="1" style="stop-color:#242024"/>
</linearGradient>
<polygon fill="url(#SVGID_78_)" points="466.222,153.49 466.222,153.436 467.556,151.936 467.556,150.104 466.222,148.77 
	466.222,145.436 458.389,145.436 458.389,147.936 428.389,147.936 428.389,143.936 422.722,143.936 422.722,148.104 
	417.722,148.104 417.722,145.104 408.389,145.104 408.389,147.936 387.889,147.936 387.889,150.777 462.889,151.27 "/>
<linearGradient id="SVGID_79_" gradientUnits="userSpaceOnUse" x1="478.5552" y1="143.4326" x2="478.5552" y2="270.1552">
	<stop  offset="0" style="stop-color:#F05A22"/>
	<stop  offset="0.17" style="stop-color:#C73F2B"/>
	<stop  offset="0.3152" style="stop-color:#A92B31"/>
	<stop  offset="0.427" style="stop-color:#962E33"/>
	<stop  offset="0.5569" style="stop-color:#863035"/>
	<stop  offset="0.6606" style="stop-color:#813136"/>
	<stop  offset="1" style="stop-color:#242024"/>
</linearGradient>
<polygon fill="url(#SVGID_79_)" points="482.389,159.936 475.722,159.936 474.722,161.104 474.722,166.021 482.389,166.021 "/>
<linearGradient id="SVGID_80_" gradientUnits="userSpaceOnUse" x1="507.8052" y1="143.4414" x2="507.8052" y2="270.1228">
	<stop  offset="0" style="stop-color:#F05A22"/>
	<stop  offset="0.17" style="stop-color:#C73F2B"/>
	<stop  offset="0.3152" style="stop-color:#A92B31"/>
	<stop  offset="0.427" style="stop-color:#962E33"/>
	<stop  offset="0.5569" style="stop-color:#863035"/>
	<stop  offset="0.6606" style="stop-color:#813136"/>
	<stop  offset="1" style="stop-color:#242024"/>
</linearGradient>
<polygon fill="url(#SVGID_80_)" points="506.389,173.604 506.389,178.436 509.222,179.605 509.222,173.604 "/>
<linearGradient id="SVGID_81_" gradientUnits="userSpaceOnUse" x1="427.0562" y1="143.4365" x2="427.0562" y2="270.1308">
	<stop  offset="0" style="stop-color:#F05A22"/>
	<stop  offset="0.1229" style="stop-color:#DE4426"/>
	<stop  offset="0.3152" style="stop-color:#C4262C"/>
	<stop  offset="0.3837" style="stop-color:#AF292F"/>
	<stop  offset="0.4891" style="stop-color:#962E33"/>
	<stop  offset="0.5846" style="stop-color:#863035"/>
	<stop  offset="0.6606" style="stop-color:#813136"/>
	<stop  offset="1" style="stop-color:#242024"/>
</linearGradient>
<polygon fill="url(#SVGID_81_)" points="466.222,153.49 462.889,151.27 387.889,150.777 387.889,165.479 392.163,165.479 
	466.222,166.219 "/>
<linearGradient id="SVGID_82_" gradientUnits="userSpaceOnUse" x1="429.1929" y1="143.4365" x2="429.1929" y2="270.1388">
	<stop  offset="0" style="stop-color:#F05A22"/>
	<stop  offset="0.2069" style="stop-color:#AC3C2E"/>
	<stop  offset="0.3152" style="stop-color:#8E2F34"/>
	<stop  offset="0.427" style="stop-color:#7B3135"/>
	<stop  offset="0.5569" style="stop-color:#6B3337"/>
	<stop  offset="0.6606" style="stop-color:#663437"/>
	<stop  offset="1" style="stop-color:#242024"/>
</linearGradient>
<polygon fill="url(#SVGID_82_)" points="394.726,167.844 394.726,169.619 410.3,169.619 413.061,167.646 465.306,167.646 
	466.222,166.629 466.222,166.219 392.163,165.479 392.163,167.844 "/>
<linearGradient id="SVGID_83_" gradientUnits="userSpaceOnUse" x1="439.4722" y1="147.4385" x2="439.4722" y2="270.9725">
	<stop  offset="0" style="stop-color:#F05A22"/>
	<stop  offset="0.17" style="stop-color:#C73F2B"/>
	<stop  offset="0.3152" style="stop-color:#A92B31"/>
	<stop  offset="0.427" style="stop-color:#962E33"/>
	<stop  offset="0.5569" style="stop-color:#863035"/>
	<stop  offset="0.6606" style="stop-color:#813136"/>
	<stop  offset="1" style="stop-color:#242024"/>
</linearGradient>
<polygon fill="url(#SVGID_83_)" points="441.097,188.229 436.722,188.229 429.597,194.229 396.472,193.604 392.347,195.354 
	392.347,200.229 486.597,200.229 486.597,194.729 441.097,194.229 "/>
<polygon fill="none" points="461.472,195.229 455.597,195.229 455.597,194.387 449.597,194.322 449.597,195.229 444.347,195.229 
	444.347,194.264 441.097,194.229 441.097,188.229 436.722,188.229 429.597,194.229 420.722,194.061 420.722,195.229 
	411.972,195.229 411.972,193.896 408.222,193.824 408.222,195.229 402.972,195.229 402.972,193.727 396.472,193.604 
	392.347,195.354 392.347,200.229 486.597,200.229 486.597,194.729 461.472,194.451 "/>
<linearGradient id="SVGID_84_" gradientUnits="userSpaceOnUse" x1="432.2222" y1="137.373" x2="432.2222" y2="228.8096">
	<stop  offset="0" style="stop-color:#F05A22"/>
	<stop  offset="0.0184" style="stop-color:#E95723"/>
	<stop  offset="0.2216" style="stop-color:#9B3D31"/>
	<stop  offset="0.3152" style="stop-color:#7D3236"/>
	<stop  offset="0.3935" style="stop-color:#723337"/>
	<stop  offset="0.542" style="stop-color:#623438"/>
	<stop  offset="0.6606" style="stop-color:#5D3438"/>
	<stop  offset="1" style="stop-color:#242024"/>
</linearGradient>
<path fill="url(#SVGID_84_)" d="M402.972,193.727l5.25,0.098v-3.096h-5.25V193.727z M411.972,193.896l8.75,0.164v-3.332h-8.75
	V193.896z M444.347,194.264l5.25,0.059v-3.594h-5.25V194.264z M455.597,188.729v5.658l5.875,0.064v-5.723H455.597z"/>
<polygon fill="none" points="461.472,188.729 455.597,188.729 455.597,194.387 449.597,194.322 449.597,190.729 444.347,190.729 
	444.347,194.264 441.097,194.229 441.097,188.229 436.722,188.229 429.597,194.229 420.722,194.061 420.722,190.729 
	411.972,190.729 411.972,193.896 408.222,193.824 408.222,190.729 402.972,190.729 402.972,193.727 396.472,193.604 
	392.347,195.354 392.347,200.229 486.597,200.229 486.597,199.328 486.472,199.229 482.389,197.104 482.389,194.682 
	461.472,194.451 "/>
<linearGradient id="SVGID_85_" gradientUnits="userSpaceOnUse" x1="495.8052" y1="153.0068" x2="495.8052" y2="270.7446">
	<stop  offset="0" style="stop-color:#F48120"/>
	<stop  offset="0.065" style="stop-color:#F37820"/>
	<stop  offset="0.3152" style="stop-color:#F05A22"/>
	<stop  offset="0.3259" style="stop-color:#F05922"/>
	<stop  offset="0.5121" style="stop-color:#EE4923"/>
	<stop  offset="0.6606" style="stop-color:#EE4423"/>
	<stop  offset="1" style="stop-color:#952F34"/>
</linearGradient>
<polygon fill="url(#SVGID_85_)" points="482.389,194.682 486.597,194.729 486.597,199.328 488.972,201.229 488.972,270.27 
	509.222,270.27 509.222,186.27 482.389,186.27 "/>
<linearGradient id="SVGID_86_" gradientUnits="userSpaceOnUse" x1="495.8052" y1="143.4355" x2="495.8052" y2="270.1381">
	<stop  offset="0" style="stop-color:#F05A22"/>
	<stop  offset="0.1262" style="stop-color:#DF4326"/>
	<stop  offset="0.3152" style="stop-color:#C8252C"/>
	<stop  offset="0.3932" style="stop-color:#AF292F"/>
	<stop  offset="0.495" style="stop-color:#962D33"/>
	<stop  offset="0.5872" style="stop-color:#863035"/>
	<stop  offset="0.6606" style="stop-color:#813136"/>
	<stop  offset="1" style="stop-color:#242024"/>
</linearGradient>
<polygon fill="url(#SVGID_86_)" points="509.222,179.605 506.389,178.436 482.389,178.436 482.389,182.604 509.222,182.604 "/>
<linearGradient id="SVGID_87_" gradientUnits="userSpaceOnUse" x1="495.8052" y1="143.4355" x2="495.8052" y2="270.1378">
	<stop  offset="0" style="stop-color:#F05A22"/>
	<stop  offset="0.17" style="stop-color:#C73F2B"/>
	<stop  offset="0.3152" style="stop-color:#A92B31"/>
	<stop  offset="0.427" style="stop-color:#962E33"/>
	<stop  offset="0.5569" style="stop-color:#863035"/>
	<stop  offset="0.6606" style="stop-color:#813136"/>
	<stop  offset="1" style="stop-color:#242024"/>
</linearGradient>
<rect x="482.389" y="182.604" fill="url(#SVGID_87_)" width="26.833" height="3.666"/>
<linearGradient id="SVGID_88_" gradientUnits="userSpaceOnUse" x1="243.4941" y1="204.9316" x2="243.4941" y2="270.8965">
	<stop  offset="0" style="stop-color:#F05623"/>
	<stop  offset="0.1358" style="stop-color:#EE3A23"/>
	<stop  offset="0.303" style="stop-color:#EC1C24"/>
	<stop  offset="0.6606" style="stop-color:#EC1C24"/>
	<stop  offset="1" style="stop-color:#763237"/>
</linearGradient>
<polygon fill="url(#SVGID_88_)" points="241.112,207.299 241.112,270.314 245.876,270.314 245.876,206.924 "/>
<linearGradient id="SVGID_89_" gradientUnits="userSpaceOnUse" x1="361.4365" y1="127.2378" x2="361.4365" y2="270.3159">
	<stop  offset="0" style="stop-color:#F05A22"/>
	<stop  offset="0.1515" style="stop-color:#EE3A23"/>
	<stop  offset="0.3152" style="stop-color:#EC1C24"/>
	<stop  offset="0.3909" style="stop-color:#D42129"/>
	<stop  offset="0.4935" style="stop-color:#BB272E"/>
	<stop  offset="0.5865" style="stop-color:#AB2B31"/>
	<stop  offset="0.6606" style="stop-color:#A62C32"/>
	<stop  offset="1" style="stop-color:#000000"/>
</linearGradient>
<polygon fill="url(#SVGID_89_)" points="334.087,128.072 333.627,128.114 333.627,166.26 368.603,164.803 368.603,176.711 
	375.373,176.711 375.373,183.586 375.999,183.605 375.999,210.434 381.139,217.203 376.25,217.203 376.25,231.619 381.139,232.246 
	381.139,233.373 376.125,233.373 376.125,249.42 377.503,249.42 378.256,254.309 381.014,254.686 381.014,255.438 376.125,256.439 
	376.125,270.314 389.246,270.314 389.246,128.072 "/>
<linearGradient id="SVGID_90_" gradientUnits="userSpaceOnUse" x1="354.5" y1="127.2368" x2="354.5" y2="270.312">
	<stop  offset="0" style="stop-color:#EC1C24"/>
	<stop  offset="0.0911" style="stop-color:#DE1F27"/>
	<stop  offset="0.3152" style="stop-color:#C0272D"/>
	<stop  offset="0.3201" style="stop-color:#BE272D"/>
	<stop  offset="0.4185" style="stop-color:#9B2C31"/>
	<stop  offset="0.5109" style="stop-color:#813035"/>
	<stop  offset="0.5942" style="stop-color:#713236"/>
	<stop  offset="0.6606" style="stop-color:#6C3337"/>
	<stop  offset="1" style="stop-color:#242024"/>
</linearGradient>
<polygon fill="url(#SVGID_90_)" points="368.603,176.711 368.603,164.803 333.627,166.26 333.627,182.227 375.373,183.586 
	375.373,176.711 "/>
<linearGradient id="SVGID_91_" gradientUnits="userSpaceOnUse" x1="326.5029" y1="127.2368" x2="326.5029" y2="270.3187">
	<stop  offset="0" style="stop-color:#F48120"/>
	<stop  offset="0.2099" style="stop-color:#EE3A23"/>
	<stop  offset="0.3152" style="stop-color:#EC1C24"/>
	<stop  offset="0.3909" style="stop-color:#D42129"/>
	<stop  offset="0.4935" style="stop-color:#BB272E"/>
	<stop  offset="0.5865" style="stop-color:#AB2B31"/>
	<stop  offset="0.6606" style="stop-color:#A62C32"/>
	<stop  offset="1" style="stop-color:#2F2C30"/>
</linearGradient>
<polygon fill="url(#SVGID_91_)" points="333.627,128.114 319.379,129.409 319.379,167.434 333.627,166.264 "/>
<linearGradient id="SVGID_92_" gradientUnits="userSpaceOnUse" x1="326.5029" y1="127.2402" x2="326.5029" y2="270.3089">
	<stop  offset="0" style="stop-color:#F06022"/>
	<stop  offset="0.1515" style="stop-color:#E34026"/>
	<stop  offset="0.3152" style="stop-color:#D62229"/>
	<stop  offset="0.3646" style="stop-color:#BE262C"/>
	<stop  offset="0.4501" style="stop-color:#9B2C31"/>
	<stop  offset="0.5304" style="stop-color:#813034"/>
	<stop  offset="0.6029" style="stop-color:#713236"/>
	<stop  offset="0.6606" style="stop-color:#6C3337"/>
	<stop  offset="1" style="stop-color:#242024"/>
</linearGradient>
<polygon fill="url(#SVGID_92_)" points="333.627,182.227 333.627,166.264 319.379,167.434 319.379,182.227 "/>
<linearGradient id="SVGID_93_" gradientUnits="userSpaceOnUse" x1="254.7549" y1="181.1807" x2="254.7549" y2="271.0067">
	<stop  offset="0" style="stop-color:#F6921E"/>
	<stop  offset="0.0253" style="stop-color:#F5881F"/>
	<stop  offset="0.2238" style="stop-color:#EF3A22"/>
	<stop  offset="0.3152" style="stop-color:#EC1C24"/>
	<stop  offset="0.3156" style="stop-color:#EC1C24"/>
	<stop  offset="0.3957" style="stop-color:#BE242B"/>
	<stop  offset="0.4726" style="stop-color:#9B2B30"/>
	<stop  offset="0.5444" style="stop-color:#812F34"/>
	<stop  offset="0.6091" style="stop-color:#713236"/>
	<stop  offset="0.6606" style="stop-color:#6C3337"/>
	<stop  offset="1" style="stop-color:#242024"/>
</linearGradient>
<polygon fill="url(#SVGID_93_)" points="267.563,182.227 242.157,184.566 242.157,200.027 241.946,200.066 241.99,200.154 
	245.625,200.023 245.625,190.5 264.931,189.248 264.931,199.527 267.563,199.527 "/>
<linearGradient id="SVGID_94_" gradientUnits="userSpaceOnUse" x1="255.2778" y1="179.25" x2="255.2778" y2="270.3898">
	<stop  offset="0" style="stop-color:#EC1C24"/>
	<stop  offset="0.1621" style="stop-color:#C7242B"/>
	<stop  offset="0.3152" style="stop-color:#A92B31"/>
	<stop  offset="0.3676" style="stop-color:#9A2D32"/>
	<stop  offset="0.4792" style="stop-color:#813035"/>
	<stop  offset="0.5802" style="stop-color:#713236"/>
	<stop  offset="0.6606" style="stop-color:#6C3337"/>
	<stop  offset="1" style="stop-color:#242024"/>
</linearGradient>
<polygon fill="url(#SVGID_94_)" points="245.625,190.5 245.625,200.023 259.54,199.527 264.931,199.527 264.931,189.248 "/>
<linearGradient id="SVGID_95_" gradientUnits="userSpaceOnUse" x1="245.333" y1="199.3535" x2="245.333" y2="270.2465">
	<stop  offset="0" style="stop-color:#EC1C24"/>
	<stop  offset="0.303" style="stop-color:#D62229"/>
	<stop  offset="0.4978" style="stop-color:#C7252C"/>
	<stop  offset="0.6606" style="stop-color:#C2262D"/>
	<stop  offset="1" style="stop-color:#763237"/>
</linearGradient>
<polygon fill="url(#SVGID_95_)" points="259.54,208.598 259.54,199.527 241.99,200.154 241.946,200.066 236.474,201.031 
	236.474,209.305 231.125,215.99 236.641,215.99 239.608,215.99 241.112,214.709 241.112,207.299 245.876,206.924 249.762,206.924 
	251.266,210.309 245.876,214.688 245.876,216.314 254.024,216.074 "/>
<linearGradient id="SVGID_96_" gradientUnits="userSpaceOnUse" x1="247.8398" y1="194.3955" x2="247.8398" y2="271.2021">
	<stop  offset="0" style="stop-color:#F05A22"/>
	<stop  offset="0.17" style="stop-color:#C73F2B"/>
	<stop  offset="0.3152" style="stop-color:#A92B31"/>
	<stop  offset="0.427" style="stop-color:#962E33"/>
	<stop  offset="0.5569" style="stop-color:#863035"/>
	<stop  offset="0.6606" style="stop-color:#813136"/>
	<stop  offset="1" style="stop-color:#242024"/>
</linearGradient>
<path fill="url(#SVGID_96_)" d="M254.024,216.074l-8.148,0.24v0.336l5.265,4.564v7.771l5.014-0.25v-8.148l3.385-1.936v-10.055
	L254.024,216.074z M236.139,244.992h4.973v-9.193h-4.973V244.992z M236.641,215.99v14.877l4.472-0.857v-15.301l-1.504,1.281H236.641
	z"/>
<linearGradient id="SVGID_97_" gradientUnits="userSpaceOnUse" x1="235.5337" y1="214.5986" x2="235.5337" y2="270.6579">
	<stop  offset="0" style="stop-color:#EC1C24"/>
	<stop  offset="0.303" style="stop-color:#D62229"/>
	<stop  offset="0.4978" style="stop-color:#C7252C"/>
	<stop  offset="0.6606" style="stop-color:#C2262D"/>
	<stop  offset="1" style="stop-color:#763237"/>
</linearGradient>
<polygon fill="url(#SVGID_97_)" points="241.112,230.01 236.641,230.867 229.955,231.535 229.955,232.141 241.112,231.281 "/>
<linearGradient id="SVGID_98_" gradientUnits="userSpaceOnUse" x1="235.5337" y1="127.1978" x2="235.5337" y2="270.3277">
	<stop  offset="0" style="stop-color:#EC1C24"/>
	<stop  offset="0.1621" style="stop-color:#C7242B"/>
	<stop  offset="0.3152" style="stop-color:#A92B31"/>
	<stop  offset="0.3676" style="stop-color:#9A2D32"/>
	<stop  offset="0.4792" style="stop-color:#813035"/>
	<stop  offset="0.5802" style="stop-color:#713236"/>
	<stop  offset="0.6606" style="stop-color:#6C3337"/>
	<stop  offset="1" style="stop-color:#242024"/>
</linearGradient>
<polygon fill="url(#SVGID_98_)" points="229.955,232.141 229.955,232.873 236.139,232.873 236.139,235.799 241.112,235.799 
	241.112,231.281 "/>
<linearGradient id="SVGID_99_" gradientUnits="userSpaceOnUse" x1="243.7866" y1="199.5371" x2="243.7866" y2="270.4412">
	<stop  offset="0" style="stop-color:#EC1C24"/>
	<stop  offset="0.1621" style="stop-color:#C7242B"/>
	<stop  offset="0.3152" style="stop-color:#A92B31"/>
	<stop  offset="0.3676" style="stop-color:#9A2D32"/>
	<stop  offset="0.4792" style="stop-color:#813035"/>
	<stop  offset="0.5802" style="stop-color:#713236"/>
	<stop  offset="0.6606" style="stop-color:#6C3337"/>
	<stop  offset="1" style="stop-color:#242024"/>
</linearGradient>
<path fill="url(#SVGID_99_)" d="M233.8,253.766h-4.012l3.51,8.859h0.417v-0.043h7.396v-8.898H233.8V253.766z M253.941,253.516
	l-8.065,0.324v0.715l2.967,7.152l8.942-1.338L253.941,253.516z"/>
<polygon fill="none" points="257.785,260.369 253.941,253.516 251.183,253.627 251.183,261.357 "/>
<linearGradient id="SVGID_100_" gradientUnits="userSpaceOnUse" x1="246.6279" y1="199.3506" x2="246.6279" y2="270.4965">
	<stop  offset="0" style="stop-color:#F05A22"/>
	<stop  offset="0.1515" style="stop-color:#EE3A23"/>
	<stop  offset="0.3152" style="stop-color:#EC1C24"/>
	<stop  offset="0.4456" style="stop-color:#D32229"/>
	<stop  offset="0.5653" style="stop-color:#C3262C"/>
	<stop  offset="0.6606" style="stop-color:#BE272D"/>
	<stop  offset="1" style="stop-color:#363639"/>
</linearGradient>
<path fill="url(#SVGID_100_)" d="M233.716,262.625h1.922v7.689h5.475v-7.732h-7.396V262.625z M236.139,249.588H233.8v4.096h7.312
	v-8.691h-4.973V249.588z M256.155,220.588v8.148l-4.973,0.248v24.643l2.758-0.111l3.844,6.854l-6.603,0.988v8.957h8.357v-51.662
	L256.155,220.588z"/>
<linearGradient id="SVGID_101_" gradientUnits="userSpaceOnUse" x1="248.5713" y1="205.6406" x2="248.5713" y2="270.5742">
	<stop  offset="0" style="stop-color:#CC242B"/>
	<stop  offset="0.1515" style="stop-color:#AC2A30"/>
	<stop  offset="0.3152" style="stop-color:#8E2F34"/>
	<stop  offset="0.4031" style="stop-color:#813135"/>
	<stop  offset="0.5463" style="stop-color:#713237"/>
	<stop  offset="0.6606" style="stop-color:#6C3337"/>
	<stop  offset="1" style="stop-color:#242024"/>
</linearGradient>
<path fill="url(#SVGID_101_)" d="M249.762,206.924h-3.886v7.764l5.39-4.379L249.762,206.924z M245.876,254.555v15.76h5.307v-8.957
	l-2.34,0.35L245.876,254.555z M251.141,221.215l-5.265-4.564v37.189l5.307-0.213v-24.643l-0.042,0.002V221.215z"/>
<linearGradient id="SVGID_102_" gradientUnits="userSpaceOnUse" x1="334.7715" y1="182.1465" x2="334.7715" y2="270.9068">
	<stop  offset="0" style="stop-color:#F6921E"/>
	<stop  offset="0.1906" style="stop-color:#F15C21"/>
	<stop  offset="0.3152" style="stop-color:#EE3E23"/>
	<stop  offset="0.4197" style="stop-color:#DD3327"/>
	<stop  offset="0.5537" style="stop-color:#CD292B"/>
	<stop  offset="0.6606" style="stop-color:#C8252C"/>
	<stop  offset="1" style="stop-color:#613438"/>
</linearGradient>
<path fill="url(#SVGID_102_)" d="M365.743,186.066v84.248h3.192v-84.248H365.743z M333.235,270.314h3.428v-84.248h-3.428V270.314z
	 M300.608,270.314h3.428v-84.248h-3.428V270.314z"/>
<linearGradient id="SVGID_103_" gradientUnits="userSpaceOnUse" x1="376.2275" y1="190.3154" x2="376.2275" y2="260.565">
	<stop  offset="0" style="stop-color:#EC1C24"/>
	<stop  offset="0.1621" style="stop-color:#C7242B"/>
	<stop  offset="0.3152" style="stop-color:#A92B31"/>
	<stop  offset="0.3676" style="stop-color:#9A2D32"/>
	<stop  offset="0.4792" style="stop-color:#813035"/>
	<stop  offset="0.5802" style="stop-color:#713236"/>
	<stop  offset="0.6606" style="stop-color:#6C3337"/>
	<stop  offset="1" style="stop-color:#242024"/>
</linearGradient>
<polygon fill="url(#SVGID_103_)" points="376.125,256.523 376.33,256.398 376.125,256.439 "/>
<linearGradient id="SVGID_104_" gradientUnits="userSpaceOnUse" x1="373.5547" y1="181.0947" x2="373.5547" y2="270.2636">
	<stop  offset="0" style="stop-color:#EC1C24"/>
	<stop  offset="0.1621" style="stop-color:#C7242B"/>
	<stop  offset="0.3152" style="stop-color:#A92B31"/>
	<stop  offset="0.3676" style="stop-color:#9A2D32"/>
	<stop  offset="0.4792" style="stop-color:#813035"/>
	<stop  offset="0.5802" style="stop-color:#713236"/>
	<stop  offset="0.6606" style="stop-color:#6C3337"/>
	<stop  offset="1" style="stop-color:#242024"/>
</linearGradient>
<path fill="url(#SVGID_104_)" d="M376.25,217.203h-6.77v7.27l6.77-5.207V217.203z M376.25,254.811h-6.77v5.766l6.644-4.053v-0.084
	l0.206-0.041l1.299-0.793L376.25,254.811z M376.125,233.373h0.995l-0.87-0.5h-6.77v5.766l6.644-4.053V233.373z"/>
<linearGradient id="SVGID_105_" gradientUnits="userSpaceOnUse" x1="320.3398" y1="181.8242" x2="320.3398" y2="270.8687">
	<stop  offset="0" style="stop-color:#F05A22"/>
	<stop  offset="0.1294" style="stop-color:#DF4226"/>
	<stop  offset="0.3152" style="stop-color:#CA242B"/>
	<stop  offset="0.4118" style="stop-color:#BB272E"/>
	<stop  offset="0.5501" style="stop-color:#AB2B31"/>
	<stop  offset="0.6606" style="stop-color:#A62C32"/>
	<stop  offset="1" style="stop-color:#242024"/>
</linearGradient>
<polygon fill="url(#SVGID_105_)" points="376.25,219.266 369.48,224.473 369.48,217.203 376.25,217.203 381.139,217.203 
	375.999,210.434 375.999,183.605 333.627,182.227 319.379,182.227 267.563,182.227 267.563,199.527 259.54,199.527 259.54,208.627 
	264.805,215.572 267.814,215.572 267.814,217.203 263.677,222.719 259.54,217.146 259.54,229.863 268.44,229.863 266.811,235.631 
	259.54,233.105 259.54,252.93 267.438,252.93 267.438,258.822 259.54,254.818 259.54,270.314 300.608,270.314 300.608,186.066 
	304.036,186.066 304.036,270.314 333.235,270.314 333.235,186.066 336.663,186.066 336.663,270.314 365.743,270.314 
	365.743,186.066 368.935,186.066 368.935,270.314 376.125,270.314 376.125,256.523 369.48,260.576 369.48,254.811 376.25,254.811 
	377.629,255.605 376.33,256.398 381.014,255.438 381.014,254.686 378.256,254.309 377.503,249.42 376.125,249.42 376.125,234.586 
	369.48,238.639 369.48,232.873 376.25,232.873 377.12,233.373 381.139,233.373 381.139,232.246 376.25,231.619 "/>
<linearGradient id="SVGID_106_" gradientUnits="userSpaceOnUse" x1="263.9902" y1="206.4268" x2="263.9902" y2="271.4452">
	<stop  offset="0" style="stop-color:#B4292F"/>
	<stop  offset="0.0236" style="stop-color:#B1292F"/>
	<stop  offset="0.3152" style="stop-color:#932F34"/>
	<stop  offset="0.4234" style="stop-color:#813135"/>
	<stop  offset="0.5553" style="stop-color:#713237"/>
	<stop  offset="0.6606" style="stop-color:#6C3337"/>
	<stop  offset="1" style="stop-color:#242024"/>
</linearGradient>
<path fill="url(#SVGID_106_)" d="M259.54,254.818l7.897,4.004v-5.893h-7.897V254.818z M268.44,229.863h-8.9v3.242l7.271,2.525
	L268.44,229.863z M267.814,217.203v-1.631h-3.009l-5.265-6.945v8.52l4.137,5.572L267.814,217.203z"/>
<linearGradient id="SVGID_107_" gradientUnits="userSpaceOnUse" x1="438.4312" y1="144.9277" x2="438.4312" y2="270.5019">
	<stop  offset="0" style="stop-color:#F6921E"/>
	<stop  offset="0.0253" style="stop-color:#F5881F"/>
	<stop  offset="0.2238" style="stop-color:#EF3A22"/>
	<stop  offset="0.3152" style="stop-color:#EC1C24"/>
	<stop  offset="0.6606" style="stop-color:#EC1C24"/>
	<stop  offset="1" style="stop-color:#9D2D33"/>
</linearGradient>
<polygon fill="url(#SVGID_107_)" points="399.181,217.418 399.181,207.197 488.972,207.197 488.972,201.229 486.597,199.328 
	486.597,200.229 392.347,200.229 392.347,195.354 396.472,193.604 402.972,193.727 402.972,190.729 408.222,190.729 
	408.222,193.824 411.972,193.896 411.972,190.729 420.722,190.729 420.722,194.061 429.597,194.229 436.722,188.229 
	441.097,188.229 441.097,194.229 444.347,194.264 444.347,190.729 449.597,190.729 449.597,194.322 455.597,194.387 
	455.597,188.729 461.472,188.729 461.472,194.451 482.389,194.682 482.389,178.436 482.389,166.021 474.722,166.021 
	474.722,166.104 468.222,166.104 466.222,167.104 466.222,166.629 465.306,167.646 413.061,167.646 410.3,169.619 394.726,169.619 
	394.726,167.844 392.163,167.844 392.163,165.479 387.889,165.479 387.889,270.27 488.972,270.27 488.972,257.822 399.181,257.822 
	399.181,246.176 488.972,246.176 488.972,236.432 399.181,236.432 399.181,226.211 488.972,226.211 488.972,217.418 "/>
<polygon fill="none" points="74.455,239.344 76.121,248.594 79.621,255.512 79.926,255.414 79.926,238.359 76.705,238.359 
	79.926,234.264 78.538,234.264 78.538,234.928 "/>
<linearGradient id="SVGID_108_" gradientUnits="userSpaceOnUse" x1="67.7354" y1="200.2412" x2="67.7354" y2="270.0288">
	<stop  offset="0" style="stop-color:#F26F21"/>
	<stop  offset="0.1043" style="stop-color:#F15E22"/>
	<stop  offset="0.3152" style="stop-color:#EE4023"/>
	<stop  offset="0.3772" style="stop-color:#E63825"/>
	<stop  offset="0.5348" style="stop-color:#D62829"/>
	<stop  offset="0.6606" style="stop-color:#D1232A"/>
	<stop  offset="1" style="stop-color:#613438"/>
</linearGradient>
<polygon fill="url(#SVGID_108_)" points="81.705,254.844 79.926,255.414 79.926,255.756 50.6,255.756 50.6,259.85 80.435,259.85 
	80.435,255.756 82.13,255.756 83.615,270.252 84.871,270.252 84.121,255.262 "/>
<linearGradient id="SVGID_109_" gradientUnits="userSpaceOnUse" x1="67.7354" y1="196.8379" x2="67.7354" y2="273.3487">
	<stop  offset="0" style="stop-color:#F26F21"/>
	<stop  offset="0.1043" style="stop-color:#F15E22"/>
	<stop  offset="0.3152" style="stop-color:#EE4023"/>
	<stop  offset="0.3772" style="stop-color:#E63825"/>
	<stop  offset="0.5348" style="stop-color:#D62829"/>
	<stop  offset="0.6606" style="stop-color:#D1232A"/>
	<stop  offset="1" style="stop-color:#613438"/>
</linearGradient>
<polygon fill="url(#SVGID_109_)" points="81.705,254.844 79.926,255.414 79.926,255.756 50.6,255.756 50.6,259.85 80.435,259.85 
	80.435,255.756 82.13,255.756 83.615,270.252 84.871,270.252 84.121,255.262 "/>
<linearGradient id="SVGID_110_" gradientUnits="userSpaceOnUse" x1="48.3804" y1="200.2422" x2="48.3804" y2="270.0301">
	<stop  offset="0" style="stop-color:#F26F21"/>
	<stop  offset="0.1043" style="stop-color:#F15E22"/>
	<stop  offset="0.3152" style="stop-color:#EE4023"/>
	<stop  offset="0.3772" style="stop-color:#E63825"/>
	<stop  offset="0.5348" style="stop-color:#D62829"/>
	<stop  offset="0.6606" style="stop-color:#D1232A"/>
	<stop  offset="1" style="stop-color:#613438"/>
</linearGradient>
<polygon fill="url(#SVGID_110_)" points="77.117,226.59 59.923,226.59 59.923,201.859 46.362,201.018 46.362,222.156 
	45.572,222.156 45.854,222.326 52.634,222.326 52.634,226.59 36.869,226.59 36.869,222.156 36.361,222.156 36.361,201.008 
	36.021,201.008 25.173,201.859 25.173,227.102 18.223,228.125 18.223,255.756 23.986,255.756 23.986,248.592 27.715,248.592 
	27.715,246.545 29.411,246.545 29.411,248.422 34.327,248.422 34.327,252.174 32.631,253.709 32.631,255.756 38.056,255.756 
	38.056,234.264 78.538,234.264 78.538,226.932 77.553,226.932 "/>
<linearGradient id="SVGID_111_" gradientUnits="userSpaceOnUse" x1="48.3804" y1="196.8389" x2="48.3804" y2="273.3498">
	<stop  offset="0" style="stop-color:#F26F21"/>
	<stop  offset="0.1043" style="stop-color:#F15E22"/>
	<stop  offset="0.3152" style="stop-color:#EE4023"/>
	<stop  offset="0.3772" style="stop-color:#E63825"/>
	<stop  offset="0.5348" style="stop-color:#D62829"/>
	<stop  offset="0.6606" style="stop-color:#D1232A"/>
	<stop  offset="1" style="stop-color:#613438"/>
</linearGradient>
<polygon fill="url(#SVGID_111_)" points="77.117,226.59 59.923,226.59 59.923,201.859 46.362,201.018 46.362,222.156 
	45.572,222.156 45.854,222.326 52.634,222.326 52.634,226.59 36.869,226.59 36.869,222.156 36.361,222.156 36.361,201.008 
	36.021,201.008 25.173,201.859 25.173,227.102 18.223,228.125 18.223,255.756 23.986,255.756 23.986,248.592 27.715,248.592 
	27.715,246.545 29.411,246.545 29.411,248.422 34.327,248.422 34.327,252.174 32.631,253.709 32.631,255.756 38.056,255.756 
	38.056,234.264 78.538,234.264 78.538,226.932 77.553,226.932 "/>
<path fill="none" d="M122.455,126.955v-4.77c-5.226,0.134-10.692,0.333-16.333,0.595v4.646
	C110.37,127.268,115.922,127.092,122.455,126.955z"/>
<path fill="none" d="M189.955,138.168c0-1.664,0-4.366,0-4.366s-34.649-2.95-83.833-0.68v4.649
	C121.892,137.188,155.787,136.345,189.955,138.168z"/>
<path fill="none" d="M189.955,106.879c0-1.877,0-4.927,0-4.927s-34.649-3.328-83.833-0.767v5.245
	C121.892,105.771,155.787,104.822,189.955,106.879z"/>
<path fill="none" d="M189.955,169.711c0-1.664,0-4.367,0-4.367s-34.649-2.951-83.833-0.68v4.65
	C121.892,168.729,155.787,167.887,189.955,169.711z"/>
<path fill="none" d="M189.955,180.561c0-1.664,0-4.367,0-4.367s-34.649-2.949-83.833-0.68v4.65
	C121.892,179.578,155.787,178.736,189.955,180.561z"/>
<path fill="none" d="M122.455,147.646v-4.77c-5.226,0.133-10.692,0.332-16.333,0.594v4.646
	C110.37,147.959,115.922,147.783,122.455,147.646z"/>
<path fill="none" d="M189.955,96.281c0-1.877,0-4.926,0-4.926s-34.649-3.328-83.833-0.767v5.245
	C121.892,95.173,155.787,94.223,189.955,96.281z"/>
<path fill="none" d="M189.955,191.158c0-1.664,0-4.365,0-4.365s-34.649-2.951-83.833-0.68v4.648
	C121.892,190.178,155.787,189.336,189.955,191.158z"/>
<path fill="none" d="M189.955,159.111c0-1.662,0-4.365,0-4.365s-34.649-2.951-83.833-0.68v4.648
	C121.892,158.131,155.787,157.289,189.955,159.111z"/>
<path fill="none" d="M189.955,85.935c0-1.876,0-4.926,0-4.926s-34.649-3.328-83.833-0.767v5.245
	C121.892,84.828,155.787,83.877,189.955,85.935z"/>
<path fill="none" d="M189.955,43.795c0-2.019,0-5.299,0-5.299s-34.649-3.579-83.833-0.825v5.642
	C121.892,42.604,155.787,41.582,189.955,43.795z"/>
<path fill="none" d="M189.955,54.141c0-2.019,0-5.299,0-5.299s-34.649-3.579-83.833-0.824v5.642
	C121.892,52.95,155.787,51.927,189.955,54.141z"/>
<path fill="none" d="M189.955,64.74c0-1.948,0-5.113,0-5.113s-34.649-3.453-83.833-0.796v5.444
	C121.892,63.59,155.787,62.605,189.955,64.74z"/>
<path fill="none" d="M189.955,75.337c0-1.877,0-4.927,0-4.927s-34.649-3.327-83.833-0.767v5.245
	C121.892,74.23,155.787,73.28,189.955,75.337z"/>
<linearGradient id="SVGID_112_" gradientUnits="userSpaceOnUse" x1="640.522" y1="156.0176" x2="640.522" y2="271.1402">
	<stop  offset="0" style="stop-color:#F16A22"/>
	<stop  offset="0.0109" style="stop-color:#F16922"/>
	<stop  offset="0.5273" style="stop-color:#EF4B23"/>
	<stop  offset="1" style="stop-color:#4C3539"/>
</linearGradient>
<polygon fill="url(#SVGID_112_)" points="648.591,164.031 642.67,156.26 639.585,156.26 632.454,164.742 638.58,164.031 "/>
<linearGradient id="SVGID_113_" gradientUnits="userSpaceOnUse" x1="597.7231" y1="198.6777" x2="597.7231" y2="169.6778">
	<stop  offset="0" style="stop-color:#F58A1F"/>
	<stop  offset="0.6606" style="stop-color:#F26F21"/>
	<stop  offset="1" style="stop-color:#EC1C24"/>
</linearGradient>
<polygon fill="url(#SVGID_113_)" points="607.33,170.156 596.205,170.156 588.116,170.932 588.116,171.104 599.296,173.225 
	599.296,198.156 607.33,198.156 "/>
<linearGradient id="SVGID_114_" gradientUnits="userSpaceOnUse" x1="578.9517" y1="196.7412" x2="578.9517" y2="270.7615">
	<stop  offset="0" style="stop-color:#F89E1C"/>
	<stop  offset="0.5273" style="stop-color:#F4821F"/>
	<stop  offset="1" style="stop-color:#EC1C24"/>
</linearGradient>
<polygon fill="url(#SVGID_114_)" points="570.574,200.598 570.574,270.25 587.33,270.25 587.33,198.383 "/>
<linearGradient id="SVGID_115_" gradientUnits="userSpaceOnUse" x1="631.8433" y1="153.3066" x2="631.8433" y2="303.1862">
	<stop  offset="0" style="stop-color:#F48020"/>
	<stop  offset="0.2112" style="stop-color:#F26921"/>
	<stop  offset="0.5273" style="stop-color:#EF4B23"/>
	<stop  offset="1" style="stop-color:#4C3539"/>
</linearGradient>
<polygon fill="url(#SVGID_115_)" points="637.902,168.859 637.902,164.109 632.454,164.742 628.212,164.742 626.67,165.898 
	626.67,168.02 625.785,168.02 626.423,168.859 "/>
<linearGradient id="SVGID_116_" gradientUnits="userSpaceOnUse" x1="634.3735" y1="153.3086" x2="634.3735" y2="303.2376">
	<stop  offset="0" style="stop-color:#F89E1C"/>
	<stop  offset="0.2746" style="stop-color:#F4781F"/>
	<stop  offset="0.5273" style="stop-color:#F05A22"/>
	<stop  offset="1" style="stop-color:#613438"/>
</linearGradient>
<polygon fill="url(#SVGID_116_)" points="681.417,203.094 681.417,198.381 666.767,198.381 666.767,164.357 648.839,164.357 
	648.591,164.031 638.58,164.031 637.902,164.109 637.902,168.859 626.423,168.859 625.785,168.02 618.959,168.02 618.959,157.418 
	620.309,155.49 605.465,155.49 597.369,157.418 598.718,157.996 598.718,166.766 597.273,166.766 596.405,167.635 588.116,169.754 
	588.116,170.932 596.205,170.156 607.33,170.156 607.33,198.156 599.296,198.156 599.296,198.381 587.345,198.381 587.33,198.383 
	587.33,203.094 605.789,203.094 605.789,270.25 616.122,270.25 616.122,203.094 652.788,203.094 652.788,270.25 662.789,270.25 
	662.789,203.094 "/>
<linearGradient id="SVGID_117_" gradientUnits="userSpaceOnUse" x1="794.0552" y1="239.9346" x2="794.0552" y2="270.4492">
	<stop  offset="0" style="stop-color:#CE242A"/>
	<stop  offset="0.4094" style="stop-color:#AC292F"/>
	<stop  offset="1" style="stop-color:#743237"/>
</linearGradient>
<rect x="775.154" y="240.611" fill="url(#SVGID_117_)" width="37.804" height="29.627"/>
<g>
</g>
<g>
</g>
<g>
</g>
<g>
</g>
<g>
</g>
<g>
</g>
<g>
</g>
<g>
</g>
<g>
</g>
<g>
</g>
<g>
</g>
<g>
</g>
<g>
</g>
<g>
</g>
<g>
</g>
</svg>
