<?xml version="1.0" encoding="utf-8"?>
<!-- Generator: Adobe Illustrator 16.1.0, SVG Export Plug-In . SVG Version: 6.00 Build 0)  -->
<!DOCTYPE svg PUBLIC "-//W3C//DTD SVG 1.1//EN" "http://www.w3.org/Graphics/SVG/1.1/DTD/svg11.dtd">
<svg version="1.1" id="Layer_1" xmlns="http://www.w3.org/2000/svg" xmlns:xlink="http://www.w3.org/1999/xlink" x="0px" y="0px"
	 width="576.001px" height="112.333px" viewBox="0 0 576.001 112.333" enable-background="new 0 0 576.001 112.333"
	 xml:space="preserve">
<polygon points="572.668,34.5 572.668,33.333 570.835,33.333 570.835,34.5 568.668,34.5 568.668,32.333 562.835,32.333 
	562.835,34.5 561.335,34.5 561.335,32.333 557.335,32.333 557.335,34.5 553.168,34.5 553.168,36.5 551.335,36.5 551.335,40 
	549.335,40 549.335,38.5 542.835,38.5 542.835,40 541.002,40 541.002,39 536.335,39 536.335,37.666 535.668,37.666 535.668,36.833 
	530.002,36.833 530.002,40.333 527.168,40.333 527.168,38.333 525.835,38.333 525.835,37 524.002,37 524.002,38.045 520.335,34.5 
	519.168,34.5 519.168,33.5 518.002,33.5 518.002,34.5 517.335,34.5 517.335,34 516.502,34 516.502,34.5 515.502,34.5 
	515.502,36.833 512.835,36.833 512.835,38.333 511.668,38.333 511.668,43.666 509.002,43.666 509.002,42 508.002,42 508.002,43.666 
	506.335,43.666 506.335,40.5 502.835,40.5 502.835,39 500.502,39 500.502,40.5 500.002,40.5 500.002,25.166 498.835,25.166 
	498.835,20.5 498.002,20.5 498.002,16.5 497.335,16.5 497.335,12.166 492.668,12.166 492.668,11.166 491.668,11.166 491.668,12.166 
	477.168,12.166 477.168,16.5 476.668,16.5 476.668,20.5 476.002,20.5 476.002,25.166 474.835,25.166 474.835,34 474.335,34 
	474.335,36 471.335,36 471.335,34.666 470.002,34.666 470.002,33.666 467.002,33.666 467.002,34.666 464.502,34.666 464.502,33.666 
	462.502,33.666 462.502,34.666 456.835,34.666 456.835,37.5 452.835,37.5 452.835,38.69 446.002,34.833 445.168,34.833 
	445.168,33.833 438.668,33.833 438.668,36.5 435.335,36.5 435.335,35.666 431.668,35.666 431.668,34.666 422.335,34.666 
	422.335,35.666 411.502,35.666 411.502,36.166 409.168,36.166 409.168,37.166 408.002,37.166 408.002,37.833 405.668,37.833 
	405.668,36.5 400.502,36.5 400.502,39.5 398.502,39.5 398.502,38.333 397.835,38.333 397.835,39.5 397.668,39.5 397.668,40.333 
	395.002,40.333 395.002,42.666 388.335,42.666 388.335,39.666 385.168,39.666 385.168,35.333 376.002,35.333 376.002,36.666 
	366.335,36.666 366.335,34.666 365.057,34.666 363.835,33.666 363.335,33.666 363.335,32.666 357.502,32.666 357.502,33.666 
	356.835,33.666 356.002,34.36 356.002,32 355.168,32 355.168,34.666 353.668,34.666 353.668,38 352.668,38 352.668,37.5 
	349.002,37.5 349.002,38 338.835,38 338.835,43.333 337.502,43.333 337.502,44.833 335.002,44.833 335.002,45.666 333.835,45.666 
	333.835,46.333 331.835,46.333 331.835,44.333 326.835,44.333 326.835,41.333 314.668,41.333 314.668,41.833 311.502,41.833 
	311.502,38.833 306.502,38.833 306.502,41.833 303.502,41.833 303.502,38.333 298.668,38.333 298.668,41.833 296.835,41.833 
	296.835,40.166 295.168,40.166 295.168,39 290.668,39 290.668,37.333 287.669,37.333 287.669,36.666 284.669,36.666 284.669,37.333 
	281.669,37.333 281.669,35.833 277.835,35.833 277.835,37.333 276.501,37.333 276.501,40.166 272.501,40.166 272.501,51.5 
	272.001,51.5 272.001,50.5 268.335,50.5 268.335,51.5 263.169,51.5 263.169,52.833 260.169,52.833 260.169,70.833 256.335,70.833 
	256.335,71.333 251.835,71.333 251.835,70 239.335,70 239.335,71.333 235.335,71.333 235.335,69 232.501,69 232.501,70.5 
	229.668,70.5 229.668,69 229.001,69 229.001,65.833 227.335,65.833 227.335,58.666 231.668,58.666 231.668,24 228.668,22.938 
	228.668,14.5 227.835,14.5 227.835,10.333 222.878,10.333 223.001,1.833 221.168,0 221.168,10.333 220.001,10.333 220.001,10.833 
	210.835,10.833 210.835,13.666 206.001,13.666 206.001,33.333 210.168,33.333 210.168,60.333 207.835,60.333 207.835,57.333 
	206.668,57.333 206.668,71.333 204.168,71.333 204.168,60 202.001,60 202.001,58.666 200.335,58.666 200.335,60 198.835,60 
	198.835,71.333 198.501,71.333 198.501,71 194.168,71 194.168,71.333 192.168,71.333 192.168,70.333 185.334,70.333 185.334,65.166 
	181.834,65.166 181.834,57 177.001,57 177.001,36.833 170.168,36.833 170.168,36 164.834,36 164.834,35.5 164.168,35.5 164.168,36 
	163.501,36 163.501,36.833 158.668,36.833 158.668,39 150.168,39 150.168,53.166 141.334,53.166 141.334,51.333 140.168,51.333 
	140.168,50.166 138.334,50.166 138.334,49.5 136.834,49.5 136.834,48.833 134.668,48.833 134.668,49.5 133.334,49.5 133.334,47 
	120.834,47 120.834,49.5 118.501,49.5 118.501,51.333 117.834,51.333 117.834,71.333 114.668,71.333 114.668,60 113.834,60 
	113.834,52.666 108.668,52.666 108.668,43.833 108.168,43.833 108.168,41.5 95.501,41.5 95.501,43.833 91.334,43.833 91.334,52.333 
	86.834,52.333 86.834,50 81.168,50 81.168,52.333 75.334,52.333 75.334,50 69.501,50 69.501,52.333 59.168,52.333 59.168,60.166 
	46.668,60.166 46.668,58.833 45.834,58.833 45.834,60.166 44.501,60.166 44.501,67.333 43.334,67.333 43.334,71.333 41.001,71.333 
	41.001,44.333 40.001,44.333 40.001,43.333 36.334,43.333 36.334,41.833 32.168,41.833 32.168,40.666 26.501,40.666 26.501,41.833 
	24.501,41.833 24.501,43.333 22.668,43.333 22.668,44.333 21.834,44.333 21.834,61.833 6.001,61.833 6.001,68.667 3.168,68.667 
	3.168,67.5 2.001,67.5 2.001,68.667 0.001,68.667 0.001,71.333 0,71.333 0,112.333 576.001,112.333 576.001,76.834 576.001,71.333 
	576.001,44.501 576.001,36.5 576.001,34.5 "/>
<g>
</g>
<g>
</g>
<g>
</g>
<g>
</g>
<g>
</g>
<g>
</g>
<g>
</g>
<g>
</g>
<g>
</g>
<g>
</g>
<g>
</g>
<g>
</g>
<g>
</g>
<g>
</g>
<g>
</g>
</svg>
