<?xml version="1.0" encoding="utf-8"?>
<!-- Generator: Adobe Illustrator 16.2.1, SVG Export Plug-In . SVG Version: 6.00 Build 0)  -->
<!DOCTYPE svg PUBLIC "-//W3C//DTD SVG 1.1//EN" "http://www.w3.org/Graphics/SVG/1.1/DTD/svg11.dtd">
<svg version="1.1" id="Layer_1" xmlns="http://www.w3.org/2000/svg" xmlns:xlink="http://www.w3.org/1999/xlink" x="0px" y="0px"
	 width="1000px" height="1257px" viewBox="0 0 1000 1257" enable-background="new 0 0 1000 1257" xml:space="preserve">
<g>
	<g>
		<path fill="none" d="M-1,612.5c0-212.667,0.012-425.333-0.094-638c-0.001-3.749,0.845-4.595,4.594-4.593
			c330.333,0.101,660.667,0.101,991,0c3.749-0.002,4.594,0.844,4.593,4.593c-0.099,425.667-0.099,851.333,0,1277
			c0.001,3.749-0.844,4.595-4.593,4.593c-330.333-0.101-660.667-0.101-991,0c-3.749,0.002-4.595-0.844-4.594-4.593
			C-0.988,1038.5-1,825.5-1,612.5z M597.48,443.424c0-113.331,0.022-226.662-0.09-339.993c-0.004-4.162,0.655-5.633,5.313-5.565
			c21.162,0.306,42.332,0.042,63.496,0.222c3.651,0.031,4.755-0.746,4.73-4.603c-0.184-28.332-0.17-56.665-0.013-84.997
			c0.021-3.671-0.802-4.742-4.632-4.738C554.622,3.86,442.957,3.862,331.292,3.738c-3.935-0.004-4.55,1.217-4.533,4.763
			c0.142,28.328,0.161,56.657-0.02,84.984c-0.024,3.796,0.979,4.638,4.667,4.605c21.332-0.188,42.666-0.002,63.998-0.179
			c3.609-0.03,4.695,0.681,4.693,4.548c-0.109,227.163-0.107,454.325-0.006,681.487c0.001,3.782-0.955,4.67-4.672,4.658
			c-43.166-0.137-86.332-0.131-129.497-0.011c-3.723,0.011-5.029-0.677-5.026-4.807c0.119-171.664,0.114-343.327,0.021-514.991
			c-0.002-3.636,0.72-4.783,4.59-4.736c18.83,0.225,37.665,0.036,56.497,0.164c3.097,0.021,4.258-0.58,4.241-4.022
			c-0.147-28.832-0.143-57.666-0.002-86.498c0.016-3.244-1.03-3.765-3.961-3.763c-105.165,0.071-210.33,0.078-315.494-0.021
			c-3.43-0.003-4.028,1.103-4.016,4.213c0.111,28.499,0.146,56.999-0.03,85.497c-0.023,3.789,0.982,4.656,4.679,4.623
			c21.332-0.187,42.666-0.017,63.998-0.166c3.434-0.024,4.992,0.807,4.446,4.398c-0.173,1.141-0.027,2.329-0.027,3.496
			c0,198.163,0.002,396.325-0.014,594.488c0,3.015,0.064,5.669,2.534,8.176c37.885,38.449,75.681,76.986,113.389,115.61
			c2.26,2.314,4.549,2.781,7.482,2.779c65.332-0.047,130.665,0.001,195.996-0.129c3.912-0.008,4.883,0.971,4.87,4.873
			c-0.148,43.499-0.146,86.998-0.002,130.497c0.012,3.763-0.939,4.69-4.674,4.656c-20.998-0.193-42,0.005-62.997-0.183
			c-3.919-0.035-5.388,0.607-5.364,5.028c0.198,37.165,0.171,74.332,0.023,111.497c-0.016,3.869,0.894,4.981,4.896,4.978
			c111.331-0.116,222.662-0.116,333.993,0.002c3.883,0.005,4.606-1.131,4.594-4.747c-0.133-37.333-0.162-74.666,0.03-111.998
			c0.021-4.237-1.482-4.771-5.102-4.745c-20.832,0.147-41.668-0.101-62.497,0.205c-4.836,0.071-5.618-1.541-5.604-5.87
			c0.146-42.832,0.16-85.666-0.018-128.497c-0.019-4.501,1.039-5.728,5.656-5.716c64.665,0.166,129.331,0.105,193.996,0.136
			c2.708,0.001,4.973-0.208,7.108-2.456c9.981-10.505,20.172-20.811,30.312-31.164c27.277-27.853,54.511-55.747,81.928-83.461
			c3.093-3.127,4.188-6.213,4.187-10.5c-0.092-176.33-0.078-352.66-0.078-528.99c0-22.333,0.145-44.667-0.121-66.997
			c-0.054-4.565,1.312-5.441,5.581-5.396c20.997,0.227,41.999,0.006,62.997,0.191c3.849,0.034,5.017-0.872,4.99-4.893
			c-0.187-28.164-0.175-56.332-0.008-84.497c0.023-3.856-0.874-4.958-4.874-4.954c-104.831,0.119-209.662,0.116-314.493,0.008
			c-3.688-0.004-4.677,0.802-4.652,4.591c0.181,28.331,0.201,56.666-0.015,84.997c-0.031,4.183,1.395,4.769,5.036,4.735
			c18.332-0.164,36.667,0.065,54.997-0.182c4.165-0.057,5.178,1.022,5.175,5.171c-0.11,171.496-0.109,342.993-0.001,514.49
			c0.002,3.988-1.09,4.9-4.946,4.888c-42.165-0.138-84.332-0.179-126.496,0.036c-4.986,0.025-6.307-1.095-6.299-6.223
			C597.52,669.42,597.48,556.422,597.48,443.424z"/>
		<path fill-rule="evenodd" clip-rule="evenodd" fill="#7D110C" d="M597.48,443.424c0,112.998,0.039,225.996-0.127,338.994
			c-0.008,5.128,1.312,6.248,6.299,6.223c42.164-0.215,84.331-0.174,126.496-0.036c3.856,0.013,4.948-0.899,4.946-4.888
			c-0.108-171.497-0.109-342.994,0.001-514.49c0.003-4.148-1.01-5.228-5.175-5.171c-18.33,0.247-36.665,0.018-54.997,0.182
			c-3.642,0.033-5.067-0.553-5.036-4.735c0.216-28.331,0.195-56.666,0.015-84.997c-0.024-3.789,0.965-4.595,4.652-4.591
			c104.831,0.108,209.662,0.111,314.493-0.008c4-0.004,4.897,1.098,4.874,4.954c-0.167,28.165-0.179,56.333,0.008,84.497
			c0.026,4.021-1.142,4.927-4.99,4.893c-20.998-0.186-42,0.035-62.997-0.191c-4.27-0.046-5.635,0.83-5.581,5.396
			c0.266,22.33,0.121,44.664,0.121,66.997c0,176.33-0.014,352.66,0.078,528.99c0.002,4.287-1.094,7.373-4.187,10.5
			c-27.417,27.714-54.65,55.608-81.928,83.461c-10.14,10.354-20.33,20.659-30.312,31.164c-2.136,2.248-4.4,2.457-7.108,2.456
			c-64.665-0.03-129.331,0.03-193.996-0.136c-4.617-0.012-5.675,1.215-5.656,5.716c0.178,42.831,0.164,85.665,0.018,128.497
			c-0.015,4.329,0.768,5.941,5.604,5.87c20.829-0.306,41.665-0.058,62.497-0.205c3.619-0.025,5.123,0.508,5.102,4.745
			c-0.192,37.332-0.163,74.665-0.03,111.998c0.013,3.616-0.711,4.752-4.594,4.747c-111.331-0.118-222.662-0.118-333.993-0.002
			c-4.002,0.004-4.912-1.108-4.896-4.978c0.147-37.165,0.175-74.332-0.023-111.497c-0.024-4.421,1.445-5.063,5.364-5.028
			c20.998,0.188,41.999-0.011,62.997,0.183c3.735,0.034,4.687-0.894,4.674-4.656c-0.144-43.499-0.146-86.998,0.002-130.497
			c0.013-3.902-0.958-4.881-4.87-4.873c-65.332,0.13-130.664,0.082-195.996,0.129c-2.934,0.002-5.222-0.465-7.482-2.779
			c-37.708-38.624-75.503-77.161-113.389-115.61c-2.47-2.507-2.534-5.161-2.534-8.176c0.016-198.163,0.014-396.325,0.014-594.488
			c0-1.167-0.146-2.355,0.027-3.496c0.546-3.592-1.012-4.423-4.446-4.398c-21.332,0.149-42.666-0.021-63.998,0.166
			c-3.697,0.033-4.702-0.834-4.679-4.623c0.176-28.498,0.141-56.998,0.03-85.497c-0.012-3.11,0.586-4.216,4.016-4.213
			c105.165,0.1,210.329,0.093,315.494,0.021c2.931-0.002,3.977,0.519,3.961,3.763c-0.141,28.832-0.145,57.666,0.002,86.498
			c0.018,3.442-1.144,4.043-4.241,4.022c-18.832-0.128-37.667,0.061-56.497-0.164c-3.871-0.047-4.592,1.101-4.59,4.736
			c0.093,171.664,0.098,343.327-0.021,514.991c-0.003,4.13,1.303,4.817,5.026,4.807c43.166-0.12,86.332-0.126,129.497,0.011
			c3.717,0.012,4.673-0.876,4.672-4.658c-0.101-227.162-0.103-454.324,0.006-681.487c0.002-3.867-1.083-4.578-4.693-4.548
			c-21.332,0.177-42.666-0.01-63.998,0.179c-3.688,0.032-4.692-0.81-4.667-4.605c0.18-28.327,0.161-56.656,0.02-84.984
			c-0.018-3.546,0.598-4.767,4.533-4.763c111.665,0.124,223.33,0.122,334.994,0.011c3.83-0.004,4.652,1.067,4.632,4.738
			c-0.157,28.332-0.171,56.665,0.013,84.997c0.024,3.856-1.079,4.634-4.73,4.603c-21.164-0.18-42.334,0.084-63.496-0.222
			c-4.658-0.067-5.317,1.403-5.313,5.565C597.503,216.762,597.48,330.093,597.48,443.424z"/>
	</g>
</g>
</svg>
